<?xml version="1.0" standalone="no"?>
<!DOCTYPE svg PUBLIC "-//W3C//DTD SVG 1.1//EN" "http://www.w3.org/Graphics/SVG/1.1/DTD/svg11.dtd" >
<!--
2013-9-30: Created.
-->
<svg>
<metadata>
Created by iconfont
</metadata>
<defs>

<font id="iconfont" horiz-adv-x="1024" >
  <font-face
    font-family="iconfont"
    font-weight="500"
    font-stretch="normal"
    units-per-em="1024"
    ascent="896"
    descent="-128"
  />
    <missing-glyph />
    
    <glyph glyph-name="jiaoshiguanli" unicode="&#58883;" d="M480.6513 725.3317c-30.4394 0-25.7556-13.612-42.1468-15.9529-16.3891-2.3357 3.3198 6.5874-45.8537-2.775-49.1735-9.3727-66.5405-72.5862-68.8814-96.0092-2.3398-23.4117-2.9276-89.2355-1.366-124.3617 4.6828-21.0678-11.7074-21.0678-11.7074-21.0678-29.4636 1.8903-16.2161-89.9246-16.2161-89.9246 4.2332-22.6273-1.5247-33.8975 42.1028-51.4222 20.7831-59.2005 75.0725-90.5062 75.0725-90.5062s0.2714-36.5353 1.0926-63.5771c-4.4411 2.2159 15.1593-69.0995-120.3651-89.1095-135.5274-19.9854-161.4776-63.8894-187.0275-88.322-25.5488-24.45-24.5555-142.9248-24.5555-142.9248l874.6455-0.469c0 0-6.4983 118.9448-32.0502 143.3948-25.5488 24.4316-53.3821 68.3356-188.9065 88.322-131.755 19.0648-110.0892 89.3788-111.0221 93.5916 0.2396 10.6568 1.6712 55.8326 1.6712 55.8326s46.0073 36.3213 66.7873 95.5279c32.7025 20.6438 45.1574 23.5233 50.5651 47.316 0 0 9.6195 92.7601-21.2582 92.2911 0 0-14.6371-4.7084-9.9492 16.3727 4.6817 21.076 3.1222 86.8936 0.7793 110.3043-2.3429 23.4168 1.1878 90.3506-47.9846 99.7171-33.5636 6.2484-37.9412 0.0614-54.3334 2.4033-16.386 2.3429-35.9014 44.799-66.3419 44.799L480.6513 725.3317z"  horiz-adv-x="1024" />

    
    <glyph glyph-name="xueshengguanli" unicode="&#58881;" d="M642.0705-8.4933c-77.8465 10.2154-62.9811 56.4531-63.572 59.1155 0.1505 6.7287 0.2345 35.2655 0.2345 35.2655s42.8698 22.9325 55.9933 60.332c20.6561 13.0335 28.5245 14.8613 31.9396 29.8875 0 0 1.7981 56.7941-20.3858 56.7941 0 0-9.2426-1.4797-6.2833 11.8303 2.9553 13.31 1.3261 56.2872-0.1516 71.0748-1.4817 14.7896 2.8355 57.0593-28.2235 62.9832-21.1999 3.9383-23.6646-2.0521-34.0163-0.5724-10.3537 1.4797-22.6765 38.6355-41.9011 38.6355l-39.934-16.7434c-19.2236 0-16.2642-5.9249-26.6199-7.3984-10.3537-1.4797 2.0951 1.4735-28.9618-4.4319-31.0559-5.9249-42.026-45.8527-43.5046-60.6423-1.4787-14.7876-5.1896-57.7649-4.2015-79.9457 2.9553-13.31-17.0916-13.31-17.0916-13.31-18.6081 1.1899-12.6679-56.7951-12.6679-56.7951 2.6737-14.293 1.4623-21.4139 29.0202-32.4782 13.1236-37.3934 60.802-56.2678 60.802-56.2678s1.6599-23.9667 2.178-41.0542c-2.8027 1.4039 14.7446-43.646-70.8516-56.279-85.5992-12.6208-99.4427-47.1327-102.4922-55.7855-12.7447-30.9473-12.9751-127.3559-12.9751-127.3559l495.7604 0.9728c0 0 0.855 110.9453-15.2822 126.3831C732.7468-48.8399 727.6667-21.1141 642.0705-8.4933zM1013.1835-190.4182c0 0-7.8592 79.4255-46.0759 101.6003-12.3648 11.8282-23.6892 33.0762-89.2856 42.7448-65.6015 9.6819-52.6602 43.2671-53.1108 45.3069 0.1167 5.1589 2.4054 27.0223 2.4054 27.0223s26.8278 17.5749 36.8865 46.2326c15.8269 9.9901 4.0837 11.393 6.699 22.9079 0 0 6.1471 50.9594-6.9765 43.5292 0 0-12.418-1.1387-10.1489 9.0583 2.2641 10.2072 4.0991 43.1442 2.9645 54.4717-1.1336 11.3336 2.1719 43.7299-21.631 48.2652-16.2417 3.0228-2.2927-1.5698-10.2277-0.4372-7.9288 1.1325-17.3752 15.8689-32.1085 15.8689l-30.6022-4.9142c-14.7333 0-12.4692-4.5292-20.3981-5.6617-7.938-1.1325 1.6026 1.1325-22.1962-3.3966-23.7998-4.5414-18.3091-29.3263-19.4396-40.6538-1.1356-11.3357 1.3865-40.3978 2.1422-57.3942 2.2661-10.2011-5.5112-14.081-5.5112-14.081-14.2623 0.9134-7.8531-43.5251-7.8531-43.5251 2.0511-10.9476-3.158-16.4086 17.9599-24.8873 10.0588-28.6515 25.5119-43.1196 25.5119-43.1196s0.7875-19.7734 1.1878-32.8643c25.4659-14.9565 34.3521-32.2857 47.2105-51.372 18.6993-21.3197 17.5555-134.7031 17.5555-134.7031C883.6547-190.4182 1013.1835-190.4182 1013.1835-190.4182zM299.3633-4.3441c0.3973 13.0908 0.6994 32.8643 0.6994 32.8643s21.2726 14.4681 31.3313 43.1196c21.1149 8.4777 13.9694 13.9397 16.0184 24.8873 0 0 6.4092 44.4385-7.8531 43.5251 0 0-11.65 3.8789-9.387 14.081 0.7557 16.9964 2.3081 46.0595 1.1725 57.3942-1.1305 11.3275 4.3633 36.1124-19.4396 40.6538-23.7978 4.5292-14.2592 2.2641-22.1962 3.3966-7.9309 1.1325-2.7566 5.6617-17.4899 5.6617l-30.6022 4.9142c-14.7323 0-24.1746-14.7364-32.1085-15.8689-7.935-1.1325 6.014 3.4601-10.2277 0.4372-23.8029-4.5353-20.4974-36.9306-21.631-48.2652-1.1356-11.3275-1.8872-44.2644 0.3789-54.4717 2.2682-10.197-4.8159-9.0583-4.8159-9.0583-17.0025 0-15.3856-38.1962-15.3856-38.1962 2.6184-11.5149-3.4662-18.2497 12.3607-28.2399 10.0588-28.6577 36.8865-46.2326 36.8865-46.2326s-1.1028-21.8644-0.9882-27.0223c-0.4495-2.0398 5.7047-35.1365-49.7162-45.3069-65.5964-9.6676-76.9208-30.9156-89.2856-42.7448-48.5591-27.3469-46.079-102.0887-46.079-102.0887s129.5319 0 215.042 0c0 0-0.171 85.2654 17.5596 135.1916C266.4632-36.6298 273.8954-19.3006 299.3633-4.3441z"  horiz-adv-x="1024" />

    
    <glyph glyph-name="shezhi" unicode="&#59039;" d="M671.488 361.808c-6.56 15.792-2.96 35.712 9.152 47.808l14.96 15.872-56.592 56.976-14.96-14.688c-7.968-7.952-18.56-12.224-29.84-12.224-5.568 0-15.008 1.136-20.144 3.264C558.224 465.376 544 480.72 544 497.824L544 524l-80 0 0-26.176c0-17.104-6.224-32.384-22.048-38.928-5.152-2.128-8.576-3.216-14.144-3.216-11.264 0-20.864 4.384-28.832 12.336l-14.448 14.928-56.336-56.512 15.072-14.928c12.112-12.096 15.76-33.92 9.2-49.712C345.904 346 330.672 332 313.536 332L288 332l0-80 25.536 0c17.12 0 32.432-6.368 38.976-22.176 6.56-15.792 2.96-31.904-9.152-44l-14.96-13.968 56.592-56.032 14.96 15.168c7.968 7.952 18.56 12.464 29.84 12.464 5.568 0 7.008-1.024 12.16-3.152C457.776 133.776 464 118.56 464 101.456L464 76l80 0 0 25.456c0 17.104 14.224 32.384 30.048 38.928 5.152 2.128 12.576 3.2 18.144 3.2 11.28 0 22.864-4.384 30.832-12.336l15.456-14.928 56.832 56.512-14.832 14.928c-12.112 12.096-15.632 26.272-9.088 42.08 6.544 15.792 21.92 22.16 39.04 22.16L736 252l0 80-25.536 0C693.328 332 678.032 346 671.488 361.808zM512 193.824c-58.432 0-105.968 47.472-105.968 105.824 0 58.352 47.536 105.824 105.968 105.824s105.968-47.472 105.968-105.824C617.968 241.296 570.432 193.824 512 193.824zM816 764 208 764C119.632 764 48 692.368 48 604l0-608c0-88.368 71.632-160 160-160l608 0c88.368 0 160 71.632 160 160L976 604C976 692.368 904.368 764 816 764zM768 259.68c0-19.184-17.184-39.68-36.384-39.68l-21.152 0c-2.928 0-5.584 0.64-6.704-2.08-1.12-2.704-0.496-4.624 1.568-6.704l14.96-14.336c13.584-13.568 13.584-35.472 0-49.04l-56.592-56.352c-6.8-6.784-15.744-10.096-24.704-10.096s-17.904 3.424-24.704 10.208l-14.944 14.944c-1.392 1.392-3.248 2.128-5.136 2.128-0.928 0 0.656-0.176-0.256-0.544C591.248 107.024 592 104.384 592 101.456l0-21.12C592 61.152 571.232 44 552.016 44l-80.032 0C452.768 44 432 61.152 432 80.336l0 21.12c0 2.928 0.752 5.568-1.952 6.688-0.896 0.368-0.576 0.56-1.504 0.56-1.888 0-3.12-0.736-4.496-2.128l-14.64-14.928c-6.784-6.784-15.584-10.176-24.544-10.176s-17.824 3.392-24.624 10.176L303.68 148.16c-13.584 13.568-13.568 35.776 0.016 49.328l14.96 14.928c2.08 2.08 2.704 2.8 1.584 5.504-1.12 2.72-3.776 2.08-6.704 2.08l-21.152 0C273.184 220 256 240.496 256 259.68l0 79.92C256 358.784 273.184 380 292.384 380l21.152 0c2.928 0 5.584-0.992 6.704 1.712s0.512 4.448-1.568 6.512l-14.944 14.24c-13.584 13.568-13.584 35.424 0 48.992l56.592 56.336c6.8 6.784 15.744 10.096 24.704 10.096s17.904-3.44 24.704-10.224l14.96-14.96c1.392-1.392 3.248-2.128 5.136-2.128 0.928 0-0.64 0.176 0.256 0.544C432.752 492.256 432 494.88 432 497.824l0 21.12C432 538.128 452.768 556 471.984 556l80.032 0C571.232 556 592 538.128 592 518.928l0-21.12c0-2.928-0.752-5.568 1.952-6.688 0.896-0.368 0.576-0.544 1.504-0.544 1.888 0 3.12 0.736 4.496 2.128l14.64 14.928c6.8 6.784 15.584 10.176 24.544 10.176s17.824-3.392 24.624-10.176l56.544-56.512c13.584-13.568 13.568-35.776-0.016-49.344l-14.96-14.928c-2.08-2.064-2.704-2.432-1.584-5.136C704.88 379.008 707.52 380 710.464 380l21.152 0c19.2 0 36.384-21.216 36.384-40.4L768 259.68zM512 370.56c-39.168 0-71.04-31.824-71.04-70.928 0-39.12 31.872-70.928 71.04-70.928s71.04 31.824 71.04 70.928C583.04 338.752 551.168 370.56 512 370.56z"  horiz-adv-x="1024" />

    
    <glyph glyph-name="xianchangbiaoxianjiafen" unicode="&#59047;" d="M308.710209 491.381728l151.020877 0c11.375599 0 20.397625 9.218157 20.397625 20.397625s-9.218157 20.397625-20.397625 20.397625l-151.020877 0c-11.375599 0-20.397625-9.218157-20.397625-20.397625S297.530741 491.381728 308.710209 491.381728zM819.239226 896l-614.478452 0c-112.579199 0-204.760774-92.181574-204.760774-204.760774l0-614.478452c0-112.579199 92.181574-204.760774 204.760774-204.760774l614.478452 0c112.579199 0 204.760774 92.181574 204.760774 204.760774l0 614.478452C1024 803.818426 931.818426 896 819.239226 896zM836.302624 100.492626c0-22.555066-18.436315-40.991381-40.991381-40.991381l-566.818617 0c-11.179468 0-21.574411 4.707144-29.027389 11.963992s-11.963992 17.651791-11.963992 29.027389l0 566.818617c0 22.555066 18.436315 40.991381 40.991381 40.991381l566.818617 0c11.179468 0 21.574411-4.707144 29.027389-11.963992 7.452978-7.452978 11.963992-17.651791 11.963992-29.027389L836.302624 100.492626zM795.311243 100.492626l0 566.818617-566.818617-566.818617L795.311243 100.492626zM545.636468 305.645662l55.112814 0L600.749282 356.443593c0 11.375599 9.218157 20.397625 20.397625 20.397625 11.375599 0 20.397625-9.218157 20.397625-20.397625l0-50.797931 55.112814 0c11.375599 0 20.397625-9.218157 20.397625-20.397625 0-11.375599-9.218157-20.397625-20.397625-20.397625L641.740663 264.850412l0-50.797931c0-11.375599-9.218157-20.397625-20.397625-20.397625-11.375599 0-20.397625 9.218157-20.397625 20.397625L600.945413 264.654281 545.636468 264.654281c-11.375599 0-20.397625 9.218157-20.397625 20.397625C525.238843 296.427504 534.26087 305.645662 545.636468 305.645662z"  horiz-adv-x="1024" />

    
    <glyph glyph-name="ai-connection" unicode="&#58978;" d="M344.626 295.464c8.607 3.256 19.065 6.233 31.491 14.042 18.109 11.379 32.062 34.843-1.603 63.595-111.384 160.502-70.843 267.145-53.924 307.317-14.133 5.496-30.208 8.747-48.608 8.747h-5.787c-106.593 0-134.923-96.947-137.085-151.323-1.43-128.215 76.955-179.192 76.955-179.192s4.883-6.742 4.883-26.297c0-4.458-2.906-17.813-7.921-21.847-43.752-35.43-189.787-72.341-199.992-148.665-5.395-22.053-2.168-44.959-1.106-66.186 23.896-18.349 100.454-33.905 100.454-33.905s6.356 19.31 12.808 51.222c9.536 47.171 73.357 123.507 229.435 182.492v0zM1021.191 162.512c-10.484 76.229-160.407 113.090-205.271 148.474-5.151 4.033-8.11 17.367-8.11 21.813 0 19.539 4.972 26.27 4.972 26.27s80.384 50.909 78.882 178.961c-2.191 54.311-36.079 151.135-140.477 151.135h-5.937c-22.504 0-41.425-4.278-57.578-11.272 22.338-74.782 49.177-212.002-63.755-303.96-44.306-66.052 103.281-104.794 80.341-94.485 133.549-60.018 169.492-106.062 179.279-153.668 8.172-39.733 12.808-64.031 12.808-64.031s100.058 15.272 125.936 34.66c1.116 21.204 4.422 44.078-1.090 66.103v0zM585.685 308.824c-6.312 5.016-9.943 21.612-9.943 27.136 0 24.28 6.077 32.626 6.077 32.626-0.111-0.072 98.734 53.379 96.79 222.424-2.692 67.509-44.256 187.833-172.348 187.833h-7.285c-134.018 0-169.661-120.323-172.366-187.833-1.809-159.138 96.768-222.424 96.768-222.424s11.954-13.634 11.954-37.916c0-5.53-9.485-16.824-15.787-21.847-55.013-43.982-253.102-88.31-265.943-183.044-9.943-40.19-68.755-103.929 126.791-129.589 53.869-7.067 127.043-11.245 225.859-11.245 453.509 0 359.745 87.859 346.999 139.37-12.849 94.73-212.535 140.529-267.566 184.509v0z"  horiz-adv-x="1025" />

    
    <glyph glyph-name="jiaoshi1" unicode="&#58956;" d="M200.421046 441.263165c-67.36842 0-121.263156-53.894736-121.263156-121.263156l0-326.736837c0-67.36842 53.894736-121.263156 121.263156-121.263156l281.263153 0L294.736834 441.263165 200.421046 441.263165 200.421046 441.263165zM823.57893 441.263165l-94.315788 0-185.263155-569.263149 279.578943 0c67.36842 0 121.263156 53.894736 121.263156 121.263156L944.842086 320.000009C944.842086 387.368429 890.94735 441.263165 823.57893 441.263165L823.57893 441.263165zM853.894719 60.631593l-153.263155 0c-10.105263 0-16.842105 8.421052-16.842105 16.842105 0 10.105263 8.421052 16.842105 16.842105 16.842105L853.894719 94.315803c10.105263 0 16.842105-8.421052 16.842105-16.842105C870.736824 69.052645 862.315772 60.631593 853.894719 60.631593L853.894719 60.631593zM735.999984 672.000004C735.999984 796.631581 634.947354 896 511.999988 896c-122.947366 0-223.999996-99.368419-223.999996-223.999996 0-122.947366 101.05263-223.999996 223.999996-223.999996C634.947354 448.000007 735.999984 549.052637 735.999984 672.000004L735.999984 672.000004zM511.999988 412.631587l-109.473682-92.631577 109.473682-335.157889 109.473682 335.157889L511.999988 412.631587zM511.999988 412.631587"  horiz-adv-x="1024" />

    
    <glyph glyph-name="yonghuzhongxinicon09" unicode="&#59197;" d="M281.25 691c-21.25 0-38.75 17.5-38.75 38.75L242.5 846c0 21.25 17.5 38.75 38.75 38.75l0 0c21.25 0 38.75-17.5 38.75-38.75l0-115C320 708.5 302.5 691 281.25 691L281.25 691 281.25 691zM896.25 807.25l-76.25 0 0-77.5c0-42.5-35-77.5-77.5-77.5-42.5 0-77.5 35-77.5 77.5L665 807.25 358.75 807.25l0-77.5c0-42.5-35-77.5-77.5-77.5-42.5 0-77.5 35-77.5 77.5L203.75 807.25l-77.5 0C63.75 807.25 12.5 754.75 12.5 691l0-692.5c0-63.75 51.25-115 115-115l768.75 0c63.75 0 115 51.25 115 115l0 692.5C1011.25 754.75 960 807.25 896.25 807.25L896.25 807.25zM877.5-39 146.25-39c-35 0-63.75 28.75-63.75 63.75L82.5 618.5l858.75 0 0-593.75C941.25-10.25 912.5-39 877.5-39zM742.5 691c-21.25 0-38.75 17.5-38.75 38.75l0 115c0 21.25 17.5 38.75 38.75 38.75l0 0c21.25 0 38.75-17.5 38.75-38.75l0-115C781.25 708.5 763.75 691 742.5 691L742.5 691 742.5 691zM838.75 539.75 185 539.75c-2.5 0-5-2.5-5-6.25L180 58.5c0-3.75 2.5-6.25 5-6.25l653.75 0c2.5 0 5 2.5 5 6.25L843.75 533.5C843.75 537.25 841.25 539.75 838.75 539.75L838.75 539.75zM507.5 289.75l0-226.25-163.75 0L343.75 289.75 507.5 289.75 507.5 289.75zM343.75 302.25 343.75 528.5l163.75 0 0-226.25L343.75 302.25 343.75 302.25zM516.25 289.75l163.75 0 0-226.25-163.75 0L516.25 289.75 516.25 289.75zM516.25 302.25 516.25 528.5l163.75 0 0-226.25L516.25 302.25 516.25 302.25zM190 528.5l143.75 0 0-226.25L190 302.25 190 528.5 190 528.5zM190 289.75l143.75 0 0-226.25-143.75 0L190 289.75 190 289.75zM833.75 64.75 690 64.75 690 289.75l143.75 0L833.75 64.75 833.75 64.75zM833.75 302.25 690 302.25 690 528.5l143.75 0L833.75 302.25 833.75 302.25z"  horiz-adv-x="1024" />

    
    <glyph glyph-name="leixing" unicode="&#58887;" d="M569.608046 822.968683l454.370465 0 0-454.370465-454.370465 0 0 454.370465ZM258.812265 892.579723l258.789044-258.789044-258.789044-258.789044-258.789044 258.789044 258.789044 258.789044ZM569.608046 326.370465l454.370465 0 0-454.370465-454.370465 0 0 454.370465ZM73.010851 326.370465l454.370465 0 0-454.370465-454.370465 0 0 454.370465Z"  horiz-adv-x="1024" />

    
    <glyph glyph-name="shezhi1" unicode="&#59106;" d="M614.421331 51.347422l56.944127-23.912646 60.355304 143.728744-56.944127 23.912646c-57.762947 24.254967-57.506636 63.398356 0.347483 87.070172l57.258925 23.387981-58.980856 144.294694-57.200438-23.367339c-57.95389-23.675257-85.549506 4.188712-61.205088 61.817483 0.070529 0.16514 0.022363 0.280394 0.070529 0.402529l23.776749 56.617287-143.668537 60.331221-23.998656-57.150552c-24.334097-57.489433-63.391476-57.267526-87.023727 0.620996l-23.387981 57.207319-144.274051-58.939571 23.350137-57.238283c23.673536-57.905724-4.174951-85.461776-61.836405-61.246373L60.998663 452.82046 0.641639 309.089995l57.006054-23.938449c57.661455-24.213682 57.487713-63.388035-0.445535-87.071893L0.00344 174.712315l58.924089-144.318777 57.236563 23.396582c57.857559 23.61849 85.365444-4.111303 61.375389-61.697068l-24.014138-57.190117 143.668537-60.331221 23.776749 56.617287c0.051606 0.122135 0.187503 0.213306 0.237389 0.332001 24.100149 57.735424 63.296864 57.503195 87.008245-0.369845l23.350137-57.240003 144.334258 58.963654-23.406904 57.2142C528.892467 48.015374 556.658384 75.602389 614.421331 51.347422L614.421331 51.347422zM313.363858 114.34841c-69.453497 29.164448-102.108252 109.138752-72.950685 178.571607 29.155847 69.431134 109.11811 102.113413 178.571607 72.948965 69.431134-29.155847 102.108252-109.138752 72.950685-178.568167C462.776178 117.86452 382.793272 85.190843 313.363858 114.34841L313.363858 114.34841zM980.316976 581.684866l43.686465 0 0 110.267211-43.686465 0c-44.314342 0-54.867833 25.596732-23.61849 56.878759l30.934545 30.934545-77.982301 77.951337-30.903581-30.905301c-31.312991-31.311271-56.940686-20.697572-56.846075 23.554842 0 0.125575-0.063648 0.190943-0.063648 0.283835L821.837427 894.087126l-110.219045 0 0-43.844724c-0.125575-44.157802-25.658659-54.711294-56.923484-23.429266l-30.919063 30.903581-77.949617-77.949617 30.903581-30.934545c31.295789-31.282027 20.68037-56.878759-23.553122-56.878759L509.440327 691.953796l0-110.26549 43.734631 0c44.236932 0 54.84891-25.596732 23.554842-56.909723l-30.903581-30.903581 77.953057-77.98058 30.919063 30.932824c31.263105 31.251063 56.797909 20.697572 56.923484-23.427546l0-43.875688 110.220765 0 0 43.435314c0 0.092891 0.063648 0.190943 0.063648 0.283835-0.094612 44.252414 25.533084 54.835149 56.844355 23.587526l30.905301-30.934545 77.982301 77.98058L956.701927 524.778583C925.449143 556.089854 936.002634 581.684866 980.316976 581.684866L980.316976 581.684866zM766.721884 540.324125c-53.281799 0-96.479724 43.215127-96.479724 96.481444 0 53.264597 43.197925 96.479724 96.479724 96.479724 53.264597 0 96.481444-43.213407 96.481444-96.479724C863.201607 583.537532 819.98648 540.324125 766.721884 540.324125L766.721884 540.324125z"  horiz-adv-x="1025" />

    
    <glyph glyph-name="biaoge" unicode="&#58899;" d="M64 800v-832h896v832H64z m608-208H896V448h-224V592z m-320-560H128v147.2h224v-147.2z m0 211.2H128V384h224v-140.8z m0 204.8H128V592h224V448z m256-416h-192v147.2h192v-147.2z m0 211.2h-192V384h192v-140.8z m0 204.8h-192V592h192V448z m288-416h-224v147.2H896v-147.2z m0 211.2h-224V384H896v-140.8z"  horiz-adv-x="1024" />

    
    <glyph glyph-name="zhuxingtu" unicode="&#58918;" d="M315.076923 275.771077v146.510769c0.157538 24.418462 8.507077 35.603692 26.702769 35.682462 13.154462 0 26.387692 0.157538 39.542154 0 15.911385-0.236308 24.891077-12.130462 24.891077-33.555693 0.157538-59.076923 0.078769-178.333538 0-237.410461 0-21.819077-9.137231-33.870769-25.363692-34.028308-13.627077-0.078769-27.254154-0.157538-40.881231 0-15.517538 0.157538-24.654769 12.051692-24.812308 32.846769-0.157538 29.932308 0 59.943385 0 89.954462zM627.948308 310.902154V592.344615c0 24.654769 8.664615 36.233846 27.017846 36.233847 13.233231 0.078769 26.466462 0.157538 39.620923 0 15.517538-0.236308 24.891077-12.051692 24.969846-32.84677 0.157538-90.348308 0.157538-330.515692 0-420.942769 0-21.031385-9.609846-33.161846-25.363692-33.319385-12.760615-0.157538-25.521231 0-38.281846 0-19.219692 0-27.963077 11.500308-27.963077 37.021539V310.823385zM1032.428308 357.376v-192.196923c0-26.702769-8.113231-37.572923-27.963077-37.572923h-38.203077c-15.517538 0.236308-24.891077 12.288-24.891077 32.846769-0.157538 131.387077-0.157538 474.663385 0 606.129231 0 20.322462 8.900923 32.137846 24.418461 32.531692 13.784615 0.315077 27.569231 0.236308 41.432616 0 16.541538-0.236308 25.127385-11.815385 25.206154-34.028308v-407.709538zM118.153846-11.736615V817.230769a39.384615 39.384615 0 0 1-78.769231 0v-907.736615h1177.442462a39.384615 39.384615 0 1 1 0 78.769231H118.153846z"  horiz-adv-x="1260" />

    
    <glyph glyph-name="yongcanqu" unicode="&#58919;" d="M832.2 831.8H192.5c-84.9 0-127.3-42.8-127.3-128.3v-638.7c0-85.6 42.4-128.3 127.3-128.3h639.7c85.6 0 128.3 42.8 128.3 128.3V703.4c0 85.6-42.7 128.4-128.3 128.4zM175.6 571.1v56.7l177.1-177.1 34.8 34.8-197 197 29.8 29.8 197-197 33.8 34.8-176 176.2h57.7l195-195-157.2-155.2-195 195z m640.7-525.3L574.5 287.6l40.8 42.8L859 86.70000000000005l-42.7-40.9z m-532.3 1l-29.8 29.8L496 317.4 428.3 386l279.6 280.6c75.6 66.3 139.6 65.3 192-3L284 46.799999999999955z"  horiz-adv-x="1024" />

    
    <glyph glyph-name="xiaolian" unicode="&#58880;" d="M909.8 590.4c-5.4 10.5-16.3 17.8-28.9 17.8-17.8 0-32.2-14.4-32.2-32.1 0-6 1.7-11.7 4.6-16.5l-0.1-0.1c26.9-52.4 42.1-111.8 42.1-174.7 0-211.6-171.6-383.2-383.2-383.2S128.8 173.1 128.8 384.8 300.4 767.9 512 767.9c62.5 0 121.5-15 173.6-41.5l0.2 0.4c4.6-2.6 10-4.1 15.7-4.1 17.8 0 32.2 14.4 32.2 32.1 0 13.1-7.9 24.4-19.3 29.4C653.6 815 584.9 832.4 512 832.4 264.7 832.4 64.2 632 64.2 384.8S264.7-62.9 512-62.9s447.7 200.4 447.7 447.7c0 74.1-18 144-49.9 205.6zM771.7 676.3a32.2 32.1 0 1 1 64.4 0 32.2 32.1 0 1 1-64.4 0ZM368.1 512.2m-45.1 0a45.1 45.1 0 1 1 90.2 0 45.1 45.1 0 1 1-90.2 0ZM654.2 512.2m-45.1 0a45.1 45.1 0 1 1 90.2 0 45.1 45.1 0 1 1-90.2 0ZM512.5 156.8c75.7 0 141.2 43.9 172.5 107.6 2.3 4.7 3.8 10 3.8 15.6 0 17.7-14.4 32-32.2 32.1-12.9 0-24.1-7.3-29.2-18.1-20.3-43.5-64.4-73.6-115.4-73.6s-94.4 30.2-114.8 73.5c0 0.1-0.1 0.2-0.1 0.3-5.3 10.6-16.2 17.9-28.9 17.9-17.8 0-32.2-14.4-32.2-32.1 0-5 1.2-9.8 3.3-14.1 30.9-64.5 96.8-109.1 173.2-109.1z"  horiz-adv-x="1024" />

    
    <glyph glyph-name="jiaoshituandui" unicode="&#58923;" d="M1222.271848 229.57919c-22.93157 9.51756-48.354314 21.015283-71.285883 30.532843-6.387624 1.916287-13.350134 3.832574-19.737758 5.110099-7.665149 5.110099-15.266421 23.570332-19.737758 32.44913l-12.775248 1.916287c0.638762 13.988897 8.878797 14.627659 12.775248 24.783981s0.638762 21.654045 5.110099 29.89408c3.193812 5.748862 10.795085 5.748862 13.988896 11.433847a45.543759 45.543759 0 0 1 6.387624 18.460234c1.916287 10.156322 3.832574 24.783981-1.277525 35.004179-2.55505 5.748862-4.471337 6.387624-5.110099 13.350134-1.277525 8.878797 2.55505 36.920467 2.55505 43.244214a157.64656 157.64656 0 0 1-3.832575 45.799264s-4.471337 13.988897-12.072609 18.460234l-14.627659 2.555049-8.878797 8.49554c-36.920467 22.292808-75.693344 6.387624-96.708627-1.916287-29.89408-9.51756-48.993076-52.186888-35.642942-114.977232 2.55505-10.795085-5.748862-15.905184-5.110099-21.654045 1.277525-12.775248 1.277525-43.882977 13.350134-51.548125a35.706818 35.706818 0 0 1 9.51756-2.55505c1.277525-12.775248 2.55505-24.783981 3.832574-37.559229 3.193812-8.240035 10.156322-9.51756 12.072609-21.015283l-9.517559-2.55505a141.549747 141.549747 0 0 0-15.905184-28.616555c12.072609-5.110099 24.209095-10.156322 35.642942-15.266421 13.988897-5.748862 27.339031-12.072609 40.753041-17.182709 6.387624-2.55505 12.775248-4.471337 19.162872-7.026386 26.061506-8.878797 59.149398-20.37652 70.647121-54.741938l2.555049-3.193812v-3.832574c0-8.240035-0.638762-173.679496-0.638762-187.093506 0-1.916287-1.277525 1.916287-1.277525-8.240035H1277.524796c0.638762 21.015283-2.55505 207.406151-2.55505 222.033809-7.026386 21.654045-31.93812 26.700268-52.82565 35.642942z m-416.728588-2.555049c-46.438026 19.737758-97.347389 41.96669-143.785416 61.065685-13.350134 3.832574-26.061506 7.026386-39.475516 10.795084-15.905184 10.795085-31.171605 47.076789-39.475516 64.89826l-25.550496 3.832574c1.277525 27.339031 18.460233 29.255318 25.550496 50.270601 5.748862 18.460233 0.638762 42.605452 10.156322 60.426923 6.387624 12.072609 21.015283 12.072609 28.616555 22.292808a107.056578 107.056578 0 0 1 13.350134 36.920466c3.832574 21.015283 7.026386 49.631838-2.555049 70.263864-5.748862 12.072609-9.51756 12.775248-10.795085 27.339031-1.916287 17.821471 5.110099 74.415819 5.748862 87.191067A345.889838 345.889838 0 0 1 619.599526 814.302289S610.209719 842.280082 595.518184 851.286632l-29.255318 5.110099-18.460234 16.416194C474.664338 917.973426 396.032687 886.163059 353.746616 868.980351 292.680931 848.667706 254.482939 763.392926 281.055455 636.790219c4.471337-21.654045-12.072609-31.171605-10.795084-43.244214 2.55505-26.061506 2.55505-87.82983 27.33903-103.096251a70.263864 70.263864 0 0 1 19.737758-4.471337c2.55505-25.550496 5.110099-50.270601 7.026387-75.693344 6.387624-16.543946 21.015283-18.460233 24.783981-41.96669l-19.162872-5.110099C321.936249 345.386813 306.605951 309.105109 290.764644 298.246148c-13.350134-3.832574-26.061506-7.026386-39.475517-10.795084-46.438026-19.162872-97.347389-41.327927-143.785415-61.065686-41.96669-17.821471-92.876053-22.292808-107.503712-66.175784 0-29.89408 3.832574-257.037989 4.471337-288.209594h911.130684c0 1.277525-1.916287 228.421433-1.916287 288.209594-15.266421 44.521739-65.537022 48.993076-108.142474 66.814547zM1051.786164 223.191566c-33.087892 13.988897-69.369596 29.89408-102.201983 43.244215-9.51756 2.55505-19.162872 5.110099-27.977793 7.665148-11.433847 7.665149-22.292808 33.087892-27.977793 45.799264-5.748862 0.638762-12.072609 1.916287-17.821471 2.55505 0.638762 19.737758 13.350134 21.015283 17.821471 35.642942 4.471337 13.350134 0.638762 30.532843 7.026386 42.605452 4.471337 8.240035 15.266421 8.240035 20.37652 15.905183a75.75722 75.75722 0 0 1 9.198179 25.869878c2.55505 14.627659 5.110099 35.004179-1.916287 50.2706-3.832574 8.240035-6.387624 9.51756-7.665149 19.737758-1.277525 12.775248 3.832574 53.464413 3.832574 61.704448a226.824527 226.824527 0 0 1-5.748861 65.537022s-7.026386 20.37652-17.182709 26.061506l-21.015283 3.832574-12.775248 12.07261c-52.186888 31.93812-108.142474 9.51756-138.10043-2.55505-43.244214-13.988897-70.647121-75.054582-51.548125-165.439461 3.193812-15.266421-8.240035-22.292808-7.665149-30.532843 1.916287-18.460233 1.916287-62.981972 19.162872-73.777057a47.332294 47.332294 0 0 1 13.988896-3.193812c1.916287-17.821471 3.193812-35.642942 5.110099-54.103175 4.471337-12.072609 14.627659-13.350134 17.821471-29.89408l-13.350134-3.193812a274.987212 274.987212 0 0 0-18.460233-35.642942c16.543946-7.026386 33.087892-13.988897 49.631838-21.654045 19.162872-8.240035 38.325744-16.543946 56.658225-24.209095 8.878797-3.832574 17.821471-7.026386 27.339031-10.156322 36.281704-12.775248 78.248394-26.700268 93.514815-71.285884l1.916287-3.193812v-3.832574c0-11.433847-0.638762-28.616555 0-48.354314 0-8.878797-0.638762-165.439461 0-175.595783H1130.609444c0.638762 21.015283-1.277525 227.782671-1.277525 248.797954-12.072609 33.087892-47.715551 36.281704-77.609631 48.993076z"  horiz-adv-x="1277" />

    
    <glyph glyph-name="anpaijiaoshi" unicode="&#58922;" d="M566.687918 396.108997V741.873522h345.764524v-345.764525H566.687918zM134.515167 309.634961h345.764525v-345.764524H134.515167V309.634961z m0 432.238561h345.764525v-345.764525H134.515167V741.873522z m492.783548-421.972237L905.542416 153.007712c10.134704-6.120308 9.081748-13.425193-2.369151-16.255013 0 0-56.135733-14.017481-95.884833-30.601542l59.426221-89.303856c5.65964-8.55527 3.487918-20.269409-4.804113-26.060669l-19.94036-13.885861c-8.357841-5.79126-19.80874-3.553728-25.468381 4.935733l-59.49203 89.303856c-30.996401-33.365553-68.771208-87.987661-68.771209-87.987661-6.778406-9.805656-14.08329-8.160411-16.255012 3.619538L612.820566 309.634961c-2.171722 11.714139 4.343445 16.386632 14.478149 10.266324z"  horiz-adv-x="1024" />

    
    <glyph glyph-name="fufeiyuedu" unicode="&#58888;" d="M74.24 472.576v-330.24c0-36.352 29.696-66.048 66.048-66.048h758.784c36.352 0 66.048 29.696 66.048 66.048V472.576h-890.88z m89.088-193.536h165.888v-29.696H163.328v29.696z m265.728-96.256H163.328v29.696h265.728v-29.696z m536.064 440.832v-62.976h-890.88V623.616c0 36.352 29.696 66.048 66.048 66.048h758.784c36.352 0 66.048-29.696 66.048-66.048z"  horiz-adv-x="1024" />

    
    <glyph glyph-name="chengjiguanli" unicode="&#59006;" d="M857.2 704.2l-52 0.1c-3.3 0-6 2.7-6 6v51.9c0 3.3-2.7 6-6 6h-52c-3.3 0-6 2.7-6 6v52c0 3.3-2.7 6-6 6H165c-3.3 0-6-2.7-6-6v-884.4c0-3.3 2.7-6 6-6h692.1c3.3 0 6 2.7 6 6V698.2c0.1 3.3-2.6 6-5.9 6z m-64-704.5H229c-3.3 0-6 2.7-6 6V762.1c0 3.3 2.7 6 6 6h436.1c3.3 0 6-2.7 6-6v-116c0-3.3 2.7-6 6-6l116-0.1c3.3 0 6-2.7 6-6v-628.3c0.1-3.3-2.6-6-5.9-6zM601.9 138.2L479.4 472.4c-2.1 5.8-7.8 9.8-14 9.8h-35.2c-6.2 0-11.8-3.9-14-9.8L293.7 138.2c-1.7-4.6-1-9.7 1.8-13.7s7.3-6.4 12.2-6.4h45.1c6.4 0 12 4 14.1 10.1l20.2 59h121.5l20.2-59c2.1-6 7.7-10.1 14.1-10.1H588c4.9 0 9.4 2.4 12.2 6.4 2.7 4 3.3 9.1 1.7 13.7z m-153 225.6l38.3-112.1h-77.7l39.4 112.1zM597.1 510.1h-52c-3.3 0-6-2.7-6-6v-52c0-3.3 2.7-6 6-6h52c3.3 0 6-2.7 6-6V388c0-3.3 2.7-6 6-6h52c3.3 0 6 2.7 6 6v52.1c0 3.3 2.7 6 6 6h52c3.3 0 6 2.7 6 6v52c0 3.3-2.7 6-6 6h-52c-3.3 0-6 2.7-6 6V568c0 3.3-2.7 6-6 6h-52c-3.3 0-6-2.7-6-6v-51.9c0-3.3-2.7-6-6-6z"  horiz-adv-x="1024" />

    
    <glyph glyph-name="zuoye" unicode="&#58992;" d="M508.416 676.352h-0.512c-2.56-10.24-5.12-22.016-7.68-31.744l-2.048-8.192h20.48l-2.048 8.192c-2.56 9.728-5.12 21.504-8.192 31.744zM873.984 847.36H294.4c-48.128 0-87.552-39.424-87.552-88.576V665.6h-50.688c-9.728 0-17.92-5.12-17.92-24.064s8.192-24.064 17.92-24.064h50.688v-123.392h-50.688c-9.728 0-17.92-5.12-17.92-24.064s8.192-24.064 17.92-24.064h50.688V322.56h-50.688c-9.728 0-17.92-5.12-17.92-24.064s8.192-24.064 17.92-24.064h50.688v-123.392h-50.688c-9.728 0-17.92-5.12-17.92-24.064s8.192-24.064 17.92-24.064h50.688v-93.696c0-48.64 39.424-88.576 87.552-88.576h579.584c48.128 0 87.552 39.424 87.552 88.576V758.784c0 49.152-39.424 88.576-87.552 88.576z m-173.568-153.088h24.064V655.36h0.512l28.16 38.912h26.112l-30.208-39.424 35.328-59.392h-26.112l-23.552 40.448-10.752-14.848v-26.112h-24.064V694.272z m-80.384-60.928l-12.8 5.12c-10.24 4.096-19.968 12.8-19.968 27.136 0 16.896 14.848 30.208 35.84 30.208 11.264 0 23.552-4.608 32.256-12.8l-11.776-14.848c-6.656 5.12-12.8 7.68-20.48 7.68-7.168 0-11.776-3.072-11.776-8.192 0-5.632 6.144-7.68 14.848-11.264l12.288-5.12c12.288-5.12 19.456-13.312 19.456-27.136 0-16.384-13.824-31.232-37.888-31.232-12.8 0-26.624 4.608-36.864 14.336l13.312 16.384c7.168-6.144 16.384-10.24 24.064-10.24 8.704 0 12.8 3.072 12.8 8.704 0.512 6.144-4.608 7.68-13.312 11.264zM494.592 694.272h28.672l30.72-98.816h-25.088l-5.632 22.528h-29.184l-5.632-22.528h-24.064l30.208 98.816z m-29.184-400.896h240.128c9.728 0 17.408-10.752 17.408-23.552 0-13.312-7.68-23.552-17.408-23.552H465.408c-9.728 0-17.408 10.752-17.408 23.552 0.512 12.8 8.192 23.552 17.408 23.552zM364.032 694.272h77.312v-19.456H414.72v-79.36h-24.064V674.304h-26.624v19.968z m410.624-588.288H396.8c-12.288 0-22.528 10.24-22.528 22.528 0 12.288 10.24 22.528 22.528 22.528h377.344c12.288 0 22.528-10.24 22.528-22.528 0-12.8-9.728-22.528-22.016-22.528z"  horiz-adv-x="1024" />

    
    <glyph glyph-name="xuesheng-tianchong" unicode="&#58889;" d="M430.31339 278.245014c10.502564 3.938462 23.339031 7.585185 38.509402 17.212536 22.17208 13.85755 39.238746 42.593732-1.896296 77.748148-136.241595 196.339601-86.646154 326.746439-65.932764 375.904274-17.358405 6.709972-36.904843 10.648433-59.51453 10.648433h-7.147578c-130.406838 0-165.123647-118.591453-167.749288-185.107693-1.750427-156.809117 94.08547-219.241026 94.08547-219.241025s5.980627-8.31453 5.980627-32.237037c0-5.397151-3.500855-21.734473-9.62735-26.694018-53.388034-43.177208-232.077493-88.250712-244.622223-181.606837-6.564103-26.985755-2.625641-55.138462-1.31282-81.103134 29.173789-22.463818 122.821652-41.426781 122.821652-41.426781s7.731054 23.630769 15.607978 62.723647c11.815385 57.618234 89.855271 150.974359 280.79772 223.179487zM1257.973789 115.60114c-12.836467 93.210256-196.193732 138.283761-251.186325 181.606837-6.272365 4.959544-9.919088 21.296866-9.919088 26.694017 0 23.922507 6.126496 32.091168 6.126496 32.091168s98.31567 62.28604 96.565242 218.949288C1096.788604 641.458689 1055.361823 759.904274 927.726496 759.904274h-7.293448c-27.569231 0-50.616524-5.251282-70.4547-13.85755 27.277493-91.459829 60.098006-259.354986-78.039886-371.819943-54.263248-80.811396 126.322507-128.218803 98.315669-115.528206 163.373219-73.37208 207.279772-129.823362 219.386895-188.025071 10.064957-48.574359 15.607977-78.331624 15.607977-78.331624s122.384046 18.671225 154.037607 42.447864c1.458689 25.964672 5.397151 53.825641-1.312821 80.811396zM725.260399 294.582336c-7.731054 6.126496-12.107123 26.402279-12.107123 33.25812 0 29.757265 7.439316 39.968091 7.439317 39.968091-0.145869-0.145869 120.779487 65.349288 118.445584 272.045584C835.537322 722.415954 784.774929 869.597721 628.111681 869.597721h-8.898006c-163.956695 0-207.57151-147.181766-210.926496-229.74359-2.188034-194.735043 118.445584-272.045584 118.445585-272.045584s14.586895-16.62906 14.586894-46.386325c0-6.709972-11.669516-20.567521-19.254701-26.694017-67.245584-53.825641-309.679772-108.088889-325.287749-223.908832-12.107123-49.157835-84.166382-127.197721 155.058689-158.559544 65.932764-8.606268 155.350427-13.711681 276.275784-13.711681 554.739601 0 440.08661 107.505413 424.478632 170.520798-15.753846 115.674074-260.08433 171.687749-327.329914 225.51339z m0 0"  horiz-adv-x="1270" />

    
    <glyph glyph-name="chengji" unicode="&#58882;" d="M647.168 249.34400000000005c0.512-7.168 4.608-29.696 15.872-28.16 5.12 0.512 12.8 4.608 20.48 9.216-7.168-4.608-14.848-8.192-20.48-9.216-4.608-0.512-8.192 3.072-10.24 7.68 2.048-4.608 5.632-8.192 10.24-7.68 12.288 1.536 35.328 18.432 43.52 27.648l35.328 38.912c14.336 19.968 40.96 65.024 41.472 91.648v1.536c0 1.024 0 2.048-0.512 2.56 0 0.512 0 1.024-0.512 1.536 0 1.536-0.512 3.072-1.536 5.12l1.536-5.632c-0.512 3.584-2.048 8.192-4.096 11.776-0.512 0.512-0.512 1.536-1.024 2.048-0.512 1.024-1.024 1.536-2.048 2.048-2.56 3.072-6.144 5.12-10.752 4.608-3.584-0.512-6.144-2.048-9.216-4.096l-7.68-7.68c-2.56-2.56-4.608-5.12-5.632-5.12h-0.512c1.536 0.512 3.584 2.048 5.632 5.12-2.56-2.56-4.608-5.12-5.632-5.12s-2.048 1.024-3.072 2.048c-1.024 1.536-1.024 3.072-1.024 4.096h-0.512c-65.024-44.544-90.624-100.864-90.112-140.8l0.512-4.096z m-74.752 27.648c-1.024-2.048-2.048-5.12-3.072-7.168 0.512 2.048 1.536 4.608 3.072 7.168z m-3.072-7.168c-1.536-2.56-2.56-5.632-4.096-7.68 1.024 2.048 2.56 4.608 4.096 7.68z m-6.656-11.776c-2.048-3.072-3.584-6.656-5.632-9.728 2.048 3.072 4.096 6.144 5.632 9.728z m2.56 4.096c-1.024-1.536-1.536-2.56-2.048-4.096 0.512 1.536 1.536 2.56 2.048 4.096zM550.4 379.39200000000005c-2.048 1.536-4.096 2.048-6.144 2.56h-2.048c-9.728-1.536-18.944-16.896-23.04-16.896-1.024 0-1.536 0-2.048 0.512 0.512 0 1.024-0.512 2.048 0-1.024 0-2.048 0.512-2.048 1.024-1.536 1.536-2.048 4.096-2.048 5.632h-0.512c-66.048-46.592-91.648-103.936-90.112-143.872v-1.536c0.512-3.584 1.536-11.264 3.584-17.408 0.512-2.048 1.536-3.072 2.048-4.608 0.512-1.536 1.536-2.048 2.048-2.56l-0.512 0.512c2.048-2.56 4.608-4.096 7.68-3.584 5.632 0.512 14.848 5.632 23.552 10.752l2.048 1.536c2.048 1.024 3.072 2.048 4.608 3.072 1.024 1.024 2.048 1.536 2.56 2.048 2.56 2.048 5.632 4.608 7.68 6.144l3.584 3.584 35.328 38.912c14.848 20.48 42.496 68.608 41.472 94.72v2.048c-0.512 4.096-2.048 9.216-4.608 13.312l-5.12 4.096zM550.4 379.39200000000005c-1.024 0.512-2.048 1.536-2.56 2.048 0.512-1.024 1.536-1.536 2.56-2.048zM851.456 834.048H172.544c-60.928 0-110.592-50.176-110.592-110.592v-678.4c0-60.928 50.176-110.592 110.592-110.592h565.76c-32.768 29.184-53.76 72.192-53.76 119.808 0 88.576 71.68 160.768 160.768 160.768 46.08 0 87.552-19.456 116.736-50.176V723.456c0 60.416-50.176 110.592-110.592 110.592zM721.92 567.296c0-5.632-2.56-11.776-6.144-15.36-4.096-4.096-9.728-6.144-15.36-6.144h-440.32c-12.288 0-21.504 9.728-22.016 21.504 0 5.632 2.56 11.776 6.144 15.36 4.096 4.096 9.728 6.144 15.36 6.144h440.32c11.776 0 21.504-9.728 22.016-21.504z m-479.744 138.24c4.096 4.096 9.728 6.144 15.36 6.144h262.144c12.288 0 21.504-9.728 22.016-21.504 0-5.632-2.56-11.776-6.144-15.36-4.096-4.096-9.728-6.144-15.36-6.144H257.536c-12.288 0-20.992 9.728-22.016 21.504-0.512 5.12 2.56 11.264 6.656 15.36z m40.96-442.368c-2.56-6.144-6.656-14.336-10.752-24.064-8.192-17.92-16.896-40.448-20.992-58.88-2.048-7.68-3.072-14.336-3.072-20.48 0-2.048 0-3.584 0.512-5.632 0-0.512 0-0.512 0.512-1.024 0.512-4.096 2.048-7.68 2.048-11.776 0-0.512 0-0.512 0.512-1.024v-1.536c0-0.512-0.512-0.512 0-1.024v-0.512c-0.512-2.048-2.048-3.584-5.12-4.096-2.048-0.512-6.656 2.048-8.704 2.56-17.408 6.656-34.816 7.68-36.864 27.648-0.512 1.536-0.512 2.56-0.512 4.096v0.512c0-1.536 0-2.56 0.512-3.584 0 1.536-0.512 2.56-0.512 4.096 0 20.992 10.752 60.928 19.456 78.336 24.064 50.176 51.2 94.72 61.44 110.592l-1.024 0.512-35.84-17.92 35.84 18.432-35.84-17.92c-2.048-1.536-8.704-5.12-10.24-5.12-3.584-0.512-4.096 4.096-4.096 6.656v2.048c-0.512 11.264 7.168 15.36 16.384 22.016 12.288 9.216 53.76 39.424 65.024 40.448 9.728 1.536 20.48-18.944 20.992-24.576 0.512-1.536 0.512-2.56 0.512-4.096-0.512-7.68-6.144-18.432-50.176-114.688z m297.472 35.328c2.048 6.144 3.072 12.288 4.608 17.92-1.536-5.632-3.072-12.288-4.608-17.92z m-3.584-9.728c1.024 3.072 2.048 5.632 3.072 8.704-18.432-60.928-68.096-121.344-136.704-134.144-3.584-0.512-6.144-1.024-9.728-1.024-31.232 0.512-52.224 30.208-55.296 60.416-5.12 43.52 18.432 94.72 44.032 129.536 18.432 24.064 46.08 47.104 70.656 61.952 0 0 0.512 0.512 1.024 0.512s0.512 0 1.024 0.512l2.048 1.536c5.632 2.56 9.728 5.632 14.336 7.68h0.512s0.512 0 0.512 0.512l2.56 1.536c0.512 0.512 0.512 0.512 1.024 0.512l2.048 1.024 2.048 1.024c0.512 0 0.512 0.512 1.024 0.512 6.144 2.56 12.288 4.096 16.896 4.608h1.024c16.384 1.536 37.376-14.848 38.4-23.552 0-1.536-1.536-2.56-2.56-3.584-3.072-1.536-7.168-2.56-9.216-4.608 3.584-0.512 6.144-2.048 9.216-3.584 10.752-7.168 13.824-22.016 15.36-34.816-0.512-23.552-4.096-49.664-13.312-75.264z m90.112-101.888c-3.584-0.512-6.656-1.024-9.216-1.024-31.232 0.512-52.224 30.208-55.296 60.416-5.12 43.52 18.432 94.72 44.032 129.536 5.12 6.144 10.24 12.8 16.896 18.944l2.56 2.56 1.024 1.024c31.744 31.232 72.704 55.808 93.696 57.856h0.512v0.512c11.776 0.512 24.064-6.656 31.744-13.824 3.072-3.072 5.632-6.656 5.632-9.216 0.512-4.096-9.216-5.12-11.264-8.192 18.432-3.584 22.528-22.528 24.064-38.4 7.68-74.752-49.664-183.296-144.384-200.192zM929.792 83.96799999999996h-58.88v58.88c0 13.312-10.752 24.064-24.064 24.064s-24.064-10.752-24.064-24.064v-58.88h-58.88c-13.312 0-24.064-10.752-24.064-24.064s10.752-24.064 24.064-24.064h58.88v-58.88c0-13.312 10.752-24.064 24.064-24.064s24.064 10.752 24.064 24.064V35.84000000000003h58.88c13.312 0 24.064 10.752 24.064 24.064s-10.752 24.064-24.064 24.064z"  horiz-adv-x="1024" />

    
    <glyph glyph-name="jiaoshi" unicode="&#59170;" d="M272.128 357.248l207.36-409.472H204.736c-31.488 1.152-57.728 12.224-78.72 33.28s-32.064 47.232-33.28 78.72v185.472c1.152 31.488 12.224 57.728 33.28 78.72s47.232 32.064 78.72 33.28h67.392z m88.768 414.784c38.784 39.104 87.616 59.52 146.56 61.248 58.944-1.728 107.776-22.144 146.56-61.248 38.784-39.104 59.072-87.808 60.8-146.112-0.576-37.952-9.92-72.64-28.032-104.128s-43.456-56.576-76.096-75.264c-32.704-18.688-67.072-28.032-103.232-28.032-36.16 0-70.592 9.344-103.232 28.032-32.704 18.688-58.048 43.776-76.096 75.264-18.112 31.488-27.456 66.176-28.032 104.128 1.728 58.304 22.016 107.008 60.8 146.112z m241.984-532.928l-95.36-201.28-95.36 201.28 95.36 83.968 95.36-83.968z m286.976 84.928c21.568-20.992 34.112-47.232 37.632-78.72v-185.472c-0.576-31.488-11.52-57.728-32.832-78.72-21.312-20.992-47.68-32.064-79.168-33.28H540.736l202.112 409.472h67.392c31.488-1.216 58.048-12.288 79.616-33.28z"  horiz-adv-x="1024" />

    
    <glyph glyph-name="chengji1" unicode="&#58912;" d="M704 524.8h-51.2V832H185.6C115.2 832 64 780.8 64 710.4v-659.2c0-64 51.2-121.6 121.6-121.6h659.2c64 0 121.6 51.2 121.6 121.6V524.8H704z m-499.2 96h352v-96h-352v96z m614.4-473.6H204.8v96h614.4v-96z m0 192H204.8v89.6h614.4v-89.6zM704 576h256V710.4c0 64-51.2 121.6-121.6 121.6H704v-256z"  horiz-adv-x="1024" />

    
    <glyph glyph-name="dengdaiyongcan" unicode="&#59026;" d="M237.76 28.032a60.736 60.736 0 0 0-43.68 19.04 57.28 57.28 0 0 0-3.84 80l237.92 227.36 20.8-22.4 49.6-48c-64-68.8-148.48-158.4-192-206.24-17.28-17.12-26.72-28.64-32-34.368-9.728-9.824-22.976-15.36-36.8-15.392z m310.24 309.28l-64.8 66.88 36.192 34.24c-7.36 30.56-23.36 120.32 41.92 185.28a2387.392 2387.392 0 0 0 190.72 164.16l1.952 1.92a34.56 34.56 0 0 0 41.92-1.92 38.72 38.72 0 0 0 0-53.44l-166.08-168c0-1.92-3.808-5.76 0-9.6 3.84-3.84 7.68-1.92 11.52 1.92l178.72 162.24a33.952 33.952 0 0 0 48-48l-162.048-179.2c-5.792-5.6-1.952-9.44 0-9.44a6.08 6.08 0 0 1 9.44 0l165.568 166.08a38.304 38.304 0 0 0 53.312 0 31.968 31.968 0 0 0 3.808-42.08l-167.488-194.72c-3.84-1.92-87.488-63.04-186.4-40-11.616-9.6-21.056-21.088-36.256-36.32zM602.56 295.52L116.8 770.592c-24.8 28.64-41.92 25.44-51.36 21.12-19.04-11.68-22.88-43.68-9.6-101.28 49.44-160 114.24-263.36 194.08-304a170.56 170.56 0 0 1 131.36-9.44c32.96-33.952 119.328-123.52 173.6-181.472a11.648 11.648 0 0 1 1.952-2.208 13.472 13.472 0 0 1 19.2 0.32c2.56 2.464 30.688 84.672 30.72 91.328a14.08 14.08 0 0 1-4.192 10.56zM792.992 318.016a183.04 183.04 0 1 1 0.032-366.08 183.04 183.04 0 0 1-0.032 366.08z m110.432-213.472h-123.328a17.6 17.6 0 0 0-17.632 17.632V210.24a17.6 17.6 0 1 0 35.264 0v-70.464h105.696a17.6 17.6 0 1 0 0-35.232z"  horiz-adv-x="1024" />

    
    <glyph glyph-name="guanli" unicode="&#58925;" d="M556.373333 7.893333a39.509333 39.509333 0 0 0-51.584-21.333333L47.104 176.725333a39.509333 39.509333 0 0 0 30.293333 72.917334l457.6-190.208a39.253333 39.253333 0 0 0 21.418667-51.498667zM483.882667 8.106667a39.509333 39.509333 0 0 1 51.626666-21.333334l442.026667 183.722667a39.509333 39.509333 0 0 1-30.336 72.917333l-442.026667-183.722666a39.509333 39.509333 0 0 1-21.290666-51.626667z m72.533333 169.813333a39.509333 39.509333 0 0 0-51.626667-21.333333L47.104 346.709333a39.509333 39.509333 0 0 0 30.293333 72.874667l457.6-190.165333a39.253333 39.253333 0 0 0 21.418667-51.498667zM483.882667 178.090667a39.509333 39.509333 0 0 1 51.626666-21.290667l442.026667 183.68a39.509333 39.509333 0 0 1-30.336 72.96l-442.026667-183.722667a39.509333 39.509333 0 0 1-21.290666-51.626666z m515.626666 394.24a39.466667 39.466667 0 0 1-22.101333 23.381333L519.808 785.92a38.997333 38.997333 0 0 1-15.616 2.986667 38.997333 38.997333 0 0 1-15.573333-2.986667L47.36 602.581333a39.082667 39.082667 0 0 1-22.912-25.898666L24.32 576v-0.085333c-5.333333-18.901333 4.266667-39.296 22.869333-47.018667l457.6-190.208c10.24-4.181333 21.205333-3.882667 30.592 0.128h0.128l442.026667 183.68a39.296 39.296 0 0 1 21.973333 49.792z"  horiz-adv-x="1024" />

    
    <glyph glyph-name="honghua" unicode="&#58926;" d="M933.632 502.4a177.28 177.28 0 0 1-250.496 161.28 177.152 177.152 0 0 1-353.472 4.608 176.064 176.064 0 0 1-61.952 11.392A177.28 177.28 0 0 1 142.72 376.576a177.28 177.28 0 0 1 188.608-291.072 177.216 177.216 0 0 1 174.912-149.248 177.216 177.216 0 0 1 175.104 150.976 177.28 177.28 0 0 1 245.632 163.584c0 47.616-18.816 90.752-49.344 122.56a176.64 176.64 0 0 1 55.936 128.96zM512 217.28a166.656 166.656 0 1 0 0 333.312 166.656 166.656 0 0 0 0-333.312z"  horiz-adv-x="1024" />

    
    <glyph glyph-name="jiantou-lahoucopy" unicode="&#58927;" d="M1024 523.648L512-128 0 523.648h279.296V896h418.88v-372.352z"  horiz-adv-x="1024" />

    
    <glyph glyph-name="jilucopy" unicode="&#58928;" d="M0.073143 352.548571a31.451429 31.451429 0 1 1 62.756571 0 31.451429 31.451429 0 0 1-62.756571 0zM0.073143 352.548571a31.451429 31.451429 0 1 1 62.756571 0 31.451429 31.451429 0 0 1-62.756571 0zM0.073143 352.548571a31.451429 31.451429 0 1 1 62.756571 0 31.451429 31.451429 0 0 1-62.756571 0zM713.654857 822.857143H52.004571A51.785143 51.785143 0 0 1 0.073143 770.852571v-767.268571c0-28.891429 23.113143-52.004571 52.004571-52.004571h661.577143a51.785143 51.785143 0 0 1 52.004572 51.931428V770.121143A51.931429 51.931429 0 0 1 713.654857 822.857143z m-4.973714-814.299429H57.856V765.074286h650.825143v-756.516572zM28.964571 618.788571h419.547429a29.257143 29.257143 0 0 1 28.891429 28.891429A29.257143 29.257143 0 0 1 448.512 676.571429H28.964571A29.257143 29.257143 0 0 1 0.073143 647.68c0-15.725714 12.434286-28.891429 28.891428-28.891429zM28.964571 472.502857h419.547429a29.257143 29.257143 0 0 1 28.891429 28.891429A29.257143 29.257143 0 0 1 448.512 530.285714H28.964571A29.257143 29.257143 0 0 1 0.073143 501.394286c0-15.725714 12.434286-28.891429 28.891428-28.891429z"  horiz-adv-x="1024" />

    
    <glyph glyph-name="jilu" unicode="&#58929;" d="M438.857143 352.548571a31.451429 31.451429 0 1 1 62.756571 0 31.451429 31.451429 0 0 1-62.756571 0zM292.571429 352.548571a31.451429 31.451429 0 1 1 62.756571 0 31.451429 31.451429 0 0 1-62.756571 0zM585.142857 352.548571a31.451429 31.451429 0 1 1 62.756572 0 31.451429 31.451429 0 0 1-62.756572 0zM848.530286 818.834286H187.026286a51.785143 51.785143 0 0 1-52.077715-52.004572v-767.268571c0-28.891429 23.186286-52.077714 52.077715-52.077714H848.457143a51.785143 51.785143 0 0 1 52.077714 52.077714V765.952a51.931429 51.931429 0 0 1-52.077714 52.882286z m-4.900572-814.299429H192.804571V761.051429h650.825143v-756.516572zM308.443429 624.713143h419.547428a29.257143 29.257143 0 0 1 28.891429 28.964571 29.257143 29.257143 0 0 1-28.891429 28.891429H308.443429a29.257143 29.257143 0 0 1-28.964572-28.891429c0-15.725714 12.434286-28.964571 28.964572-28.964571zM308.443429 467.821714h419.547428a29.257143 29.257143 0 0 1 28.891429 28.891429 29.257143 29.257143 0 0 1-28.891429 28.891428H308.443429a29.257143 29.257143 0 0 1-28.964572-28.891428c0-15.652571 12.434286-28.891429 28.964572-28.891429z"  horiz-adv-x="1024" />

    
    <glyph glyph-name="honghua1" unicode="&#58930;" d="M843.889225 223.572747a340.081211 340.081211 0 0 1-276.47954-141.880652c-9.557317-13.311978-30.606171-6.200879-30.606171 10.239983v71.622992c0 12.515535 7.167988 23.60885 17.976859 30.037283a102.115385 102.115385 0 0 1 49.663917 98.929613c2.275552-2.84444 4.209771-5.745768 6.826656-8.362653a102.399829 102.399829 0 0 1 144.781981 144.83887c-2.559996 2.559996-5.518213 4.551104-8.305764 6.826655 21.617742-2.275552 44.885259 1.365331 70.826548 22.072852 26.851511 21.447075 44.771481 53.361689 42.154597 87.608743a102.399829 102.399829 0 0 1-112.981145 93.86651c2.787551 2.275552 5.688879 4.26666 8.305764 6.826656a102.399829 102.399829 0 0 1-144.781981 144.838869c-2.616885-2.616885-4.551104-5.575102-6.826656-8.362652 2.503107 23.438183-2.047997 49.03814-27.932398 77.539426C557.511035 881.150318 531.512856 895.827627 503.239126 895.998293a102.399829 102.399829 0 0 1-102.39983-113.322477c-2.275552 2.84444-4.209771 5.745768-6.826655 8.362652a102.399829 102.399829 0 0 1-144.781981-144.838869c2.559996-2.559996 5.518213-4.551104 8.305764-6.826656-23.438183 2.503107-48.981252-2.047997-77.482537-27.875509-20.935076-19.057746-35.669274-45.055925-35.839941-73.329655a102.399829 102.399829 0 0 1 113.322478-102.39983c-2.787551-2.275552-5.688879-4.209771-8.305764-6.826655a102.399829 102.399829 0 0 1 144.781981-144.781981c2.616885 2.616885 4.551104 5.575102 6.826655 8.362653-4.323548-39.879045 15.132419-78.563425 49.663918-98.986502 10.808871-6.371545 18.033748-17.46486 18.033747-29.980394v-71.679881c0-16.383973-21.048854-23.495072-30.719948-10.183094A340.1381 340.1381 0 0 1 68.267406 210.602102a34.474609 34.474609 0 0 1-21.902185-48.58303 511.885369 511.885369 0 0 1 456.248128-279.7222h0.056889c199.110779 0 371.597603 113.777588 456.248128 279.7222a34.474609 34.474609 0 0 1-21.902185 48.58303 339.796767 339.796767 0 0 1-93.126956 12.913757zM383.20377 537.598891a119.466468 119.466468 0 1 0 238.932935 0 119.466468 119.466468 0 0 0-238.932935 0z m121.74202-658.203348c0 1.934219-0.341333 3.75466-0.455111 5.68888h0.96711c-0.056889-1.991108-0.45511-3.75466-0.455111-5.68888z"  horiz-adv-x="1024" />

    
    <glyph glyph-name="jiaoyu" unicode="&#58931;" d="M1012.3264 639.8976l-370.9952 159.6416a200.0896 200.0896 0 0 1-159.0784 0L111.104 639.7952c-62.8736-27.136-62.8736-118.3744 0-145.4592l2.816-1.2288c0-0.2048-0.1536-0.4608-0.1536-0.768v-149.3504a24.832 24.832 0 1 1 49.8176 0V471.7568l49.7664-21.4016v-331.264c0-82.432 156.0064-149.2992 348.416-149.2992 192.4608 0 348.4672 66.8672 348.4672 149.2992V450.4576l102.0928 44.032c62.976 26.9312 62.976 118.272 0 145.408z m-450.56-620.3392c-185.1904 0-298.6496 64.4608-298.6496 99.5328v72.704c60.928-43.4688 171.6736-72.704 298.6496-72.704 45.7728 0 89.2416 3.8912 129.2288 10.752a24.4736 24.4736 0 0 1 20.1216 24.3712v0.1024c0 15.36-13.6704 27.136-28.7744 24.4736a714.752 714.752 0 0 0-120.576-9.8816c-185.1904 0-298.6496 64.4096-298.6496 99.5328V429.056l219.136-94.3616a200.0896 200.0896 0 0 1 159.0784 0l219.136 94.3616v-160.5632c0-17.92-29.5936-43.4176-83.1488-64.2048a25.1904 25.1904 0 0 1-16.384-23.3472v-0.1024c0-17.3568 17.408-29.5424 33.536-23.4496a300.0832 300.0832 0 0 1 65.9968 34.304v-72.5504c0-35.072-113.4592-99.5328-298.7008-99.5328z m430.8992 520.5504l-371.0976-159.744a150.528 150.528 0 0 0-59.904-12.3392 150.528 150.528 0 0 0-59.904 12.288L130.6624 540.16a28.3648 28.3648 0 0 0-17.1008 26.9824c0 5.888 1.6896 20.3776 17.1008 27.0336L501.76 753.8688a150.528 150.528 0 0 0 59.904 12.3392c20.6848 0 40.8064-4.096 59.904-12.288l371.0976-159.7952c15.4624-6.656 17.1008-21.1456 17.1008-27.0336a28.3648 28.3648 0 0 0-17.1008-26.9824zM138.6496 211.5584a24.832 24.832 0 0 1-24.8832-24.8832v-49.7664a24.832 24.832 0 1 1 49.8176 0v49.7664a24.832 24.832 0 0 1-24.9344 24.8832z"  horiz-adv-x="1126" />

    
    <glyph glyph-name="jiangpin" unicode="&#58932;" d="M556.970667 396.714667V615.253333c-7.978667 1.237333-15.658667 13.824-24.064 13.824h-4.778667c-9.813333 0-18.901333-13.098667-28.288-14.506666v-217.898667H42.666667V571.008c0 32 25.6 58.112 57.173333 58.112h104.704c-34.56 16.938667-53.333333 39.893333-63.018667 62.634667-27.946667 65.749333 14.336 144.853333 68.266667 185.898666 23.893333 18.133333 54.954667 22.826667 92.202667 14.08 79.018667-18.773333 178.048-99.2 228.522666-162.133333C580.992 792.576 680.021333 872.96 759.04 891.733333c37.248 8.704 68.352 4.010667 92.16-14.08 53.973333-41.045333 96.256-120.149333 68.309333-185.898666-9.642667-22.826667-28.586667-45.653333-63.317333-62.634667h100.821333c31.573333 0 57.173333-26.069333 57.173334-58.112v-174.293333H556.928zM289.066667 835.114667a95.573333 95.573333 0 0 1-21.333334 2.816c-9.813333 0-17.749333-2.304-23.68-6.826667-36.138667-27.477333-65.536-79.786667-50.048-116.352 8.661333-20.394667 56.106667-82.261333 306.474667-41.472-30.549333 48.810667-134.656 143.616-211.413333 161.834667z m578.005333-120.32c15.488 36.48-13.909333 88.832-50.090667 116.309333-9.685333 7.381333-24.96 8.704-44.970666 4.010667-77.226667-18.304-181.888-113.92-211.84-162.56 250.453333-40.832 298.154667 21.717333 306.901333 42.24z m-367.232-840.96H156.970667c-31.573333 0-57.173333 25.984-57.173334 58.026666v406.698667h400.042667v-464.768z m457.173333 58.026666c0-32.042667-25.6-58.026667-57.173333-58.026666h-342.869333V338.517333h400.042666v-406.698666z"  horiz-adv-x="1024" />

    
    <glyph glyph-name="kaoqin" unicode="&#58933;" d="M112.0256 448v-432.0256h799.9488V448H112.0256z m576 288v48.0256c0 8.8064 7.168 15.9744 15.9744 15.9744h16.0256c8.8064 0 15.9744-7.168 15.9744-16.0256v-47.9744h208.0256c8.8064 0 15.9744-7.168 15.9744-16.0256v-735.9488c0-8.8576-7.168-16.0256-16.0256-16.0256H80.0256a15.9744 15.9744 0 0 0-15.9744 16.0256V719.9744000000001c0 8.8064 7.168 15.9744 16.0256 15.9744h207.9744v48.0256c0 8.8064 7.168 15.9744 16.0256 15.9744h15.9744c8.8576 0 16.0256-7.168 16.0256-16.0256v-47.9744h352z m223.9488-240.0256v192H112.0256v-192h800.0512z m-186.88-107.3152l11.264-11.3152a15.9744 15.9744 0 0 0 0-22.6304l-278.3232-278.3744a32 32 0 0 0-45.2608 0L291.328 197.73440000000005a16.0256 16.0256 0 0 0 0 22.6304l11.3152 11.3152a16.0256 16.0256 0 0 0 22.6304 0l98.816-98.816c6.2464-6.1952 16.384-6.1952 22.6304 0l255.744 255.7952a16.0256 16.0256 0 0 0 22.6304 0z"  horiz-adv-x="1024" />

    
    <glyph glyph-name="kaoqin1" unicode="&#58934;" d="M819.086222 728.746667h-62.976V808.732444a30.264889 30.264889 0 0 1-30.037333 30.208h-2.161778c-16.725333 0-30.208-13.596444-30.208-30.264888v-80.099556H285.980444v80.213333A30.321778 30.321778 0 0 1 255.829333 839.111111h-2.275555a30.264889 30.264889 0 0 1-30.264889-30.321778V728.746667H157.468444c-55.466667 0-100.352-44.885333-100.579555-100.352v-553.301334a100.579556 100.579556 0 0 1 100.579555-100.408889h661.504a100.636444 100.636444 0 0 1 100.522667 100.465778V628.224c0 55.466667-44.942222 100.408889-100.408889 100.465778z m-85.902222-382.520889l-275.683556-275.740445a42.780444 42.780444 0 0 0-29.297777-12.288 39.822222 39.822222 0 0 0-28.216889 11.719111l-149.390222 149.219556a39.992889 39.992889 0 0 0 1.137777 55.296 39.992889 39.992889 0 0 0 55.239111 1.080889l121.400889-121.400889 248.433778 248.490667a39.992889 39.992889 0 0 0 55.296-1.137778 40.106667 40.106667 0 0 0 1.137778-55.239111z m115.427556 161.109333H129.706667V646.030222h718.904889v-138.695111z"  horiz-adv-x="1024" />

    
    <glyph glyph-name="jiangbei" unicode="&#58935;" d="M1024 603.363556v-75.548445c0-27.875556-8.192-56.092444-24.462222-84.309333A279.096889 279.096889 0 0 0 933.546667 366.933333c-27.591111-22.812444-61.724444-41.984-102.058667-57.571555a401.863111 401.863111 0 0 0-127.089778-26.225778 310.897778 310.897778 0 0 0-56.092444-56.035556c-14.791111-13.368889-25.258667-27.648-31.004445-42.837333a147.911111 147.911111 0 0 1-8.590222-52.906667c0-21.162667 6.030222-38.968889 18.033778-53.703111 12.003556-14.449778 31.175111-21.845333 57.514667-21.845333 29.582222 0 55.751111-8.931556 78.791111-26.737778 22.926222-17.863111 34.417778-40.448 34.417777-67.470222v-37.660444c0-5.347556-1.706667-10.012444-5.233777-13.482667a18.773333 18.773333 0 0 0-13.539556-5.233778H288.028444a18.090667 18.090667 0 0 0-18.773333 18.773333v37.603556c0 27.136 11.491556 49.607111 34.474667 67.470222 22.926222 17.92 49.152 26.737778 78.734222 26.737778 26.225778 0 45.511111 7.395556 57.514667 21.845333 12.003556 14.506667 18.033778 32.540444 18.033777 53.76 0 20.081778-2.844444 37.546667-8.533333 52.849778a110.193778 110.193778 0 0 1-31.061333 42.837333 310.897778 310.897778 0 0 0-56.092445 56.035556 398.506667 398.506667 0 0 0-127.089777 26.225778c-40.391111 15.473778-74.296889 34.702222-102.058667 57.571555A285.411556 285.411556 0 0 0 67.128889 443.505778C50.744889 471.836444 42.666667 499.939556 42.666667 527.815111V603.363556c0 15.701333 5.404444 29.184 16.440889 40.106666a54.499556 54.499556 0 0 0 40.106666 16.440889h170.040889v56.547556c0 25.884444 9.159111 48.071111 27.591111 66.56a90.453333 90.453333 0 0 0 66.56 27.648h339.683556c25.884444 0 48.071111-9.329778 66.616889-27.591111 18.545778-18.545778 27.591111-40.732444 27.591111-66.616889v-56.547556H967.111111c15.701333 0 29.184-5.404444 40.106667-16.440889a54.784 54.784 0 0 0 16.782222-40.106666zM312.775111 365.624889C283.591111 429.340444 269.084444 502.328889 269.084444 584.248889H118.215111v-56.547556c0-30.72 18.659556-62.577778 55.751111-95.459555 37.148444-32.995556 83.512889-55.182222 138.808889-66.56z m635.676445 162.133333v56.604445H797.582222c0-82.204444-14.506667-155.079111-43.690666-218.737778 55.466667 11.377778 101.660444 33.564444 138.808888 66.616889 37.205333 32.995556 55.751111 64.853333 55.751112 95.573333z"  horiz-adv-x="1024" />

    
    <glyph glyph-name="renyuanxiaozu" unicode="&#58936;" d="M960 9.386667h-126.862222c0 185.969778-252.359111 296.220444-254.976 352.540444-2.673778 56.376889 95.744 109.397333 97.735111 212.992 2.161778 109.568-64.853333 156.273778-102.855111 174.08 17.066667 6.144 35.100444 9.500444 53.873778 9.500445 96.426667 0 174.535111-87.210667 174.535111-194.730667 0-79.075556-105.699556-137.671111-105.699556-187.164445-0.113778-49.436444 264.248889-179.882667 264.248889-367.217777zM468.536889 386.503111c-10.979556-25.201778 7.793778-47.445333 7.793778-47.445333 208.213333-140.401778 253.838222-329.614222 253.838222-329.614222H64c0 165.774222 232.277333 308.565333 253.724444 329.614222 17.123556 16.782222 13.141333 35.612444 7.566223 47.616-60.416 30.606222-102.627556 98.190222-102.627556 177.095111 0 107.576889 78.108444 194.730667 174.478222 194.730667 96.369778 0 174.535111-87.210667 174.535111-194.730667-0.113778-79.075556-42.439111-146.773333-103.139555-177.265778z"  horiz-adv-x="1024" />

    
    <glyph glyph-name="shequ" unicode="&#58937;" d="M945.550222 596.48a494.250667 494.250667 0 0 1-105.073778 156.444444l-6.656 6.712889A497.208889 497.208889 0 0 1 491.804444 896c-131.925333 0-254.862222-51.427556-348.728888-143.075556v-2.275555C51.427556 656.839111 0 533.959111 0 404.252444c0-53.646222 8.931556-102.798222 24.576-152.007111a561.891556 561.891556 0 0 1 62.577778-127.431111l4.494222-4.437333v-187.733333c0-8.988444 8.931556-17.92 17.863111-17.92h382.293333c67.015111 0 129.649778 13.425778 192.227556 38.001777a494.250667 494.250667 0 0 1 156.444444 105.073778l6.712889 6.712889a485.489778 485.489778 0 0 1 138.638223 342.016 567.182222 567.182222 0 0 1-40.277334 190.008889zM668.444444 325.973333l-176.583111-169.870222a17.066667 17.066667 0 0 0-11.207111-4.494222c-4.437333 0-6.712889 2.275556-11.150222 4.494222L295.082667 323.697778l-2.275556 2.275555c-42.439111 42.439111-53.646222 96.085333-33.507555 147.456 22.357333 55.921778 78.222222 93.866667 136.362666 93.866667 26.851556 0 53.646222-8.874667 78.222222-24.519111l4.494223-2.275556 4.437333 2.275556c24.632889 15.644444 51.427556 24.576 78.279111 24.576 58.083556 0 114.005333-38.001778 136.362667-93.866667 24.576-51.427556 13.368889-105.073778-29.070222-147.569778z"  horiz-adv-x="1024" />

    
    <glyph glyph-name="paiming" unicode="&#58938;" d="M257.152 638.848H111.488a36.48 36.48 0 0 1-36.416-36.416v-618.88c0-20.16 16.32-36.48 36.48-36.48h145.6a36.416 36.416 0 0 1 36.416 36.48v618.88a36.48 36.48 0 0 1-36.48 36.48z m327.68-218.432H439.168A36.48 36.48 0 0 1 402.752 384v-400.512c0-20.096 16.32-36.416 36.48-36.416h145.6a36.352 36.352 0 0 1 36.416 36.48V384a36.416 36.416 0 0 1-36.48 36.416z m327.68 400.512h-145.664a36.416 36.416 0 0 1-36.416-36.48v-800.96c0-20.096 16.32-36.416 36.48-36.416h145.6a36.352 36.352 0 0 1 36.416 36.48V784.448a36.416 36.416 0 0 1-36.48 36.416z"  horiz-adv-x="1024" />

    
    <glyph glyph-name="shengri" unicode="&#58939;" d="M873.408 23.808V450.88A41.344 41.344 0 0 1 832 492.288h-159.36V666.304a26.816 26.816 0 0 1-53.632 0v-174.016H538.688V666.304a26.816 26.816 0 0 1-53.568 0v-174.016H404.8V666.304a26.816 26.816 0 0 1-53.632 0v-174.016H191.872a41.344 41.344 0 0 1-41.344-41.408v-427.072h-25.536a26.816 26.816 0 0 1 0-53.632h774.016a26.816 26.816 0 0 1 0 53.632h-25.6zM351.36 438.784h447.808c11.392 0 20.672-9.28 20.672-20.672v-287.232H204.096V418.112c0 11.392 9.28 20.672 20.736 20.672H351.36z m-147.328-414.976v53.504h615.808v-53.504H204.096zM378.112 797.824c14.784 0 26.816-12.032 26.816-26.88v-26.752a26.816 26.816 0 0 0-53.632 0v26.816a26.88 26.88 0 0 0 26.816 26.816z m133.888 0c14.784 0 26.816-12.032 26.816-26.88v-26.752a26.816 26.816 0 0 0-53.632 0v26.816c0 14.784 12.032 26.816 26.816 26.816z m133.888 0c14.784 0 26.816-12.032 26.816-26.88v-26.752a26.816 26.816 0 0 0-53.632 0v26.816c0 14.784 12.032 26.816 26.88 26.816z"  horiz-adv-x="1024" />

    
    <glyph glyph-name="shengriliwu" unicode="&#58940;" d="M441.72549 634.980392l26.664157-6.083765a240.941176 240.941176 0 0 1 107.299137 0L602.352941 634.980392v-220.862745h-160.627451V634.980392zM522.039216 655.058824a80.313725 80.313725 0 0 1 80.313725 80.313725c0 44.373333-35.940392 160.627451-80.313725 160.627451s-80.313725-116.254118-80.313726-160.627451a80.313725 80.313725 0 0 1 80.313726-80.313725zM180.705882 434.196078h682.666667a40.156863 40.156863 0 0 0 40.156863-40.156862v-381.490196H140.54902V394.039216a40.156863 40.156863 0 0 0 40.156862 40.156862zM40.156863 92.862745h943.686274a40.156863 40.156863 0 0 0 40.156863-40.156863v-120.470588H0v120.470588a40.156863 40.156863 0 0 0 40.156863 40.156863z"  horiz-adv-x="1024" />

    
    <glyph glyph-name="shouye" unicode="&#58941;" d="M997.754982 377.629104l-146.505022 159.96322a26.558193 26.558193 0 0 1-37.201939 0c-9.313278-10.183199-9.313278-30.498426 0-40.630453l146.505022-159.912048c9.313278-10.132027 11.667183-33.005847 7.010544-48.203888-2.353905-5.117186-9.313278-30.498426-30.242566-30.498426h-69.798411c-13.918745 0-16.27265 5.117186-16.27265-10.132028v-203.049922c0-68.570286-46.515217-109.149568-79.060517-109.149568H635.048871v340.139324c0 15.198041 0 10.132027-13.969917 10.132027H395.462243c-13.969917 0-27.939833 5.117186-27.939833-10.132027v-342.697917H253.562688c-30.191395 0-74.403878 43.189046-74.403878 109.149568v203.101095c0 15.198041-4.605467 10.132027-20.929289 10.132027H88.533454c-20.980461 0-27.939833 25.38124-30.242567 30.447254-2.353905 5.117186-6.959372 27.939833 6.959373 43.137874l423.293588 467.045525c6.959372 7.624606 13.918745 12.69062 23.232023 12.69062s16.27265-2.558593 23.232022-10.132027l162.828844-175.161261a26.558193 26.558193 0 0 1 37.201939 0c9.313278 10.183199 9.313278 30.447254 0 40.630453L572.209832 829.476588C555.937182 847.233222 534.956721 857.723452 511.724699 857.723452c-23.232022 0-44.161311-10.49023-60.485133-30.805457L25.694415 370.055669c-25.585928-27.939833-32.596472-73.585128-18.626555-109.149567 13.969917-35.513268 44.212483-63.453101 79.060517-63.453101h37.201939v-154.846035c0-86.275748 51.171855-170.044076 127.929638-170.044076h520.929489c76.757783 0 132.535106 83.768327 132.535106 170.044076V197.504173h32.596472c34.899205 0 67.444506 30.447254 79.060517 68.570286 13.969917 35.513268 6.959372 83.717156-18.626556 111.656989zM409.380988 230.765879h183.860477v-307.031133H409.380988v307.031133z"  horiz-adv-x="1024" />

    
    <glyph glyph-name="shuju" unicode="&#58942;" d="M172.657778 678.684444a430.08 430.08 0 0 1 0-608.142222l304.128 304.071111-304.128 304.128zM508.586667 423.992889l-87.324445-174.307556 130.844445 130.787556-43.52 43.52zM400.440889 782.791111L316.757333 615.765333 380.700444 551.822222 509.155556 808.334222a430.193778 430.193778 0 0 1-108.714667-25.486222z m108.657778 25.486222l-128.398223-256.568889 63.943112-63.886222 159.857777 319.317334a432.64 432.64 0 0 1-95.345777 1.137777z m95.459555-1.137777L444.643556 487.879111 508.586667 423.936l182.044444 363.633778a430.705778 430.705778 0 0 1-86.072889 19.626666zM247.978667 76.231111a431.786667 431.786667 0 0 1 61.098666-50.688l112.184889 224.028445-173.283555-173.340445z m13.824 621.397333l-12.970667-12.344888 67.925333-69.575112 83.626667 167.082667a427.576889 427.576889 0 0 1-138.581333-85.162667zM856.177778 76.231111a428.942222 428.942222 0 0 1 124.871111 333.027556l-195.299556-389.973334a431.217778 431.217778 0 0 1 70.428445 56.945778z m44.544 555.918222l-341.333334-681.699555a431.786667 431.786667 0 0 1 103.082667 14.279111l288.597333 576.284444a427.121778 427.121778 0 0 1-50.346666 91.136z m-210.033778 155.306667L508.586667 423.992889l43.463111-43.52-130.787556-130.787556L309.077333 25.6a426.666667 426.666667 0 0 1 75.320889-41.244444l384.398222 767.601777c-25.031111 14.620444-51.2 26.453333-78.108444 35.612445z m290.360889-378.197333a430.193778 430.193778 0 0 1-29.980445 131.754666l-288.597333-576.284444c43.121778 11.377778 84.764444 29.582222 123.278222 54.556444l195.299556 389.973334z m-212.195556 342.641777L384.341333-15.644444c26.965333-11.377778 54.784-19.968 83.114667-25.6L839.111111 700.643556a429.283556 429.283556 0 0 1-70.314667 51.256888z m87.324445-67.413333a436.736 436.736 0 0 1-17.066667 16.156445L467.512889-41.301333a432.469333 432.469333 0 0 1 91.875555-8.192l341.333334 681.699555a433.891556 433.891556 0 0 1-44.544 52.337778z"  horiz-adv-x="1024" />

    
    <glyph glyph-name="sousuo" unicode="&#58943;" d="M475.867429 2.998857a419.108571 419.108571 0 0 1 421.668571 421.668572A419.108571 419.108571 0 0 1 475.867429 846.262857 419.108571 419.108571 0 0 1 54.125714 424.667429a419.108571 419.108571 0 0 1 421.668572-421.668572z m0 60.269714a362.496 362.496 0 0 0-361.398858 361.325715 362.496 362.496 0 0 0 361.325715 361.472 362.496 362.496 0 0 0 361.472-361.398857 362.496 362.496 0 0 0-361.398857-361.398858zM734.866286 123.465143l192.731428-198.729143 42.203429 42.130286-192.731429 198.802285z"  horiz-adv-x="1024" />

    
    <glyph glyph-name="tongzhi" unicode="&#58944;" d="M181.380146 159.955558V480.051553a320.095995 320.095995 0 0 0 255.985778 313.554136v38.397866a63.996445 63.996445 0 1 0 127.992889 0V793.548803a320.095995 320.095995 0 0 0 255.985779-313.611022v-319.982223h32.083551a63.939559 63.939559 0 1 0 0-127.992889H149.239709c-35.269152 0-63.882673 28.442864-63.882673 64.05333 0 35.326037 28.613521 63.939559 63.882673 63.939559h32.083551z m415.948447-191.932448a95.966224 95.966224 0 1 0-191.989334 0H597.328593z"  horiz-adv-x="1024" />

    
    <glyph glyph-name="sige" unicode="&#58945;" d="M785.042286 8.557714H614.4c-66.048 0-102.4 36.352-102.4 102.4V281.6C512 347.648 548.352 384 614.4 384h170.642286c66.048 0 102.4-36.352 102.4-102.4v-170.642286c0-66.048-36.352-102.4-102.4-102.4zM614.4 349.842286c-47.250286 0-68.242286-20.992-68.242286-68.242286v-170.642286c0-47.250286 20.992-68.315429 68.242286-68.315428h170.642286c47.250286 0 68.315429 21.065143 68.315428 68.315428V281.6c0 47.250286-21.065143 68.242286-68.315428 68.242286H614.4z m-268.214857-341.284572H175.542857c-66.048 0-102.4 36.352-102.4 102.4V281.6C73.142857 347.648 109.494857 384 175.542857 384h170.642286c66.048 0 102.4-36.352 102.4-102.4v-170.642286c0-66.048-36.352-102.4-102.4-102.4zM175.542857 349.842286c-47.250286 0-68.242286-20.992-68.242286-68.242286v-170.642286c0-47.250286 20.992-68.315429 68.242286-68.315428h170.642286c47.250286 0 68.315429 21.065143 68.315428 68.315428V281.6c0 47.250286-21.065143 68.242286-68.315428 68.242286H175.542857z m609.499429 97.572571H614.4c-66.048 0-102.4 36.352-102.4 102.4V720.457143C512 786.505143 548.352 822.857143 614.4 822.857143h170.642286c66.048 0 102.4-36.352 102.4-102.4v-170.642286c0-66.048-36.352-102.4-102.4-102.4zM614.4 788.699429c-47.250286 0-68.242286-20.992-68.242286-68.242286v-170.642286c0-47.250286 20.992-68.315429 68.242286-68.315428h170.642286c47.250286 0 68.315429 21.065143 68.315428 68.315428V720.457143c0 47.250286-21.065143 68.242286-68.315428 68.242286H614.4zM346.185143 447.414857H175.542857c-66.048 0-102.4 36.352-102.4 102.4V720.457143C73.142857 786.505143 109.494857 822.857143 175.542857 822.857143h170.642286c66.048 0 102.4-36.352 102.4-102.4v-170.642286c0-66.048-36.352-102.4-102.4-102.4zM175.542857 788.699429c-47.250286 0-68.242286-20.992-68.242286-68.242286v-170.642286c0-47.250286 20.992-68.315429 68.242286-68.315428h170.642286c47.250286 0 68.315429 21.065143 68.315428 68.315428V720.457143c0 47.250286-21.065143 68.242286-68.315428 68.242286H175.542857z"  horiz-adv-x="1024" />

    
    <glyph glyph-name="wancheng" unicode="&#58946;" d="M64 384a448 448 0 1 1 895.914667 0 448 448 0 0 1-896 0zM458.922667 246.357333L289.28 416.085333a29.952 29.952 0 0 1-42.410667-42.410666L416.597333 203.946667a29.952 29.952 0 0 1 42.325334 42.410666zM777.642667 563.712a29.952 29.952 0 0 1-42.410667 0L424.192 252.586667a29.952 29.952 0 0 1 42.325333-42.410667l311.125334 311.04a29.866667 29.866667 0 0 1 0 42.496z"  horiz-adv-x="1024" />

    
    <glyph glyph-name="xiaoxi" unicode="&#58947;" d="M511.996709 896c282.329614 0 511.996709-196.679878 511.996708-438.415467 0-144.383072-82.285185-278.306782-220.743724-360.445683v-203.77469a21.357577 21.357577 0 0 0-34.888918-16.53018l-181.539405 147.455052c-26.843256-3.437692-51.419098-5.119967-74.824661-5.119967-282.329614 0-511.996709 196.753021-511.996709 438.415468C0 699.320122 229.667095 896 511.996709 896z m0-834.115781c24.136988 0 49.663681 1.974844 78.116069 5.997676a21.211292 21.211292 0 0 0 16.457037-4.60797l153.891582-125.073482v171.226328c0 7.753093 4.169116 14.847905 10.971358 18.651308 131.363727 73.800668 209.845508 196.972448 209.845508 329.506454 0 218.18374-210.576932 395.700313-469.281554 395.700313C253.292086 853.284846 42.715154 675.768273 42.715154 457.584533c0-218.110598 210.50379-395.700313 469.281555-395.700314z m49.005399 395.700314a49.005399 49.005399 0 1 0-98.010799 0 49.005399 49.005399 0 0 0 98.010799 0z m245.319566 0a49.005399 49.005399 0 1 0-98.083941 0 49.005399 49.005399 0 0 0 98.083941 0z m-539.644531 49.078541a49.005399 49.005399 0 1 0 0-98.010798 49.005399 49.005399 0 0 0 0 98.010798z"  horiz-adv-x="1024" />

    
    <glyph glyph-name="wode" unicode="&#58948;" d="M515.072-117.272381a491.52 491.52 0 1 0 213.479619 934.424381 30.72 30.72 0 0 0-25.6-55.296 430.08 430.08 0 1 1 241.664-366.83581 30.72 30.72 0 0 0 61.44 2.779429 491.52 491.52 0 0 0-490.983619-515.023238zM515.072 91.136A281.6 281.6 0 0 0 247.56419 281.6a30.72 30.72 0 1 0 58.124191 20.23619 219.91619 219.91619 0 0 1 51.2-84.211809 222.208 222.208 0 0 1 313.831619 0 219.428571 219.428571 0 0 1 51.2 84.211809 30.72 30.72 0 0 0 58.12419-20.23619 281.6 281.6 0 0 0-267.507809-190.171429l2.535619-0.292571zM871.66781 627.95581a30.72 30.72 0 1 1 61.44 0 30.72 30.72 0 0 1-61.44 0zM923.89181 517.90019a30.72 30.72 0 1 1 61.44 0 30.72 30.72 0 0 1-61.44 0zM787.456 720.65219a30.72 30.72 0 1 1 61.44 0 30.72 30.72 0 0 1-61.44 0z"  horiz-adv-x="1024" />

    
    <glyph glyph-name="mofang" unicode="&#58949;" d="M278.966857 715.483429a8.411429 8.411429 0 0 0-8.338286 8.411428 15.36 15.36 0 0 1-13.312 15.506286 14.848 14.848 0 0 1-16.237714-14.701714v-0.731429a8.411429 8.411429 0 0 0-8.411428-8.484571 15.36 15.36 0 0 1-15.433143-13.312 14.848 14.848 0 0 1 14.628571-16.164572h0.804572c4.754286 0 8.411429-3.803429 8.411428-8.411428a15.36 15.36 0 0 1 13.312-15.506286 14.848 14.848 0 0 1 16.237714 14.701714v0.804572c0 4.681143 3.803429 8.411429 8.338286 8.411428h0.804572a14.774857 14.774857 0 0 1 14.701714 16.164572 15.36 15.36 0 0 1-15.506286 13.312z m525.165714 13.531428a8.411429 8.411429 0 0 0-8.411428 8.411429 15.36 15.36 0 0 1-13.312 15.506285 14.848 14.848 0 0 1-16.237714-14.701714v-0.804571a8.411429 8.411429 0 0 0-8.338286-8.411429 15.36 15.36 0 0 1-15.506286-13.312 14.848 14.848 0 0 1 14.628572-16.237714h0.877714c4.681143 0 8.338286-3.730286 8.338286-8.338286a15.36 15.36 0 0 1 13.312-15.506286 14.848 14.848 0 0 1 16.237714 14.628572V691.2c0 4.681143 3.803429 8.338286 8.411428 8.338286h0.731429a14.774857 14.774857 0 0 1 14.701714 16.237714 15.36 15.36 0 0 1-15.433143 13.312z m13.458286-653.165714a8.411429 8.411429 0 0 0-8.411428 8.484571 15.36 15.36 0 0 1-13.312 15.433143 14.848 14.848 0 0 1-16.164572-14.628571v-0.804572a8.411429 8.411429 0 0 0-8.411428-8.411428 15.36 15.36 0 0 1-15.506286-13.312 14.848 14.848 0 0 1 14.701714-16.237715h0.804572c4.681143 0 8.411429-3.803429 8.411428-8.338285a15.36 15.36 0 0 1 13.312-15.506286 14.848 14.848 0 0 1 16.164572 14.628571v0.877715c0 4.681143 3.803429 8.338286 8.411428 8.338285h0.804572a14.774857 14.774857 0 0 1 14.701714 16.237715 15.36 15.36 0 0 1-15.506286 13.312zM677.376 94.134857a13.458286 13.458286 0 0 0-13.385143 13.458286V285.110857c0 4.754286 2.633143 9.289143 6.802286 11.702857l155.721143 88.502857a13.458286 13.458286 0 0 0 20.187428-11.629714V197.485714a13.677714 13.677714 0 0 0-6.729143-11.702857l-155.648-89.892571a14.774857 14.774857 0 0 0-6.948571-1.755429zM833.097143 373.613714v-176.274285L677.376 107.52V285.110857l155.721143 88.502857z m0 26.989715a27.282286 27.282286 0 0 1-13.312-3.510858L664.137143 308.662857a26.916571 26.916571 0 0 1-13.531429-23.405714v-177.517714a26.770286 26.770286 0 0 1 26.989715-26.843429 27.282286 27.282286 0 0 1 13.458285 3.584l155.721143 89.892571a27.062857 27.062857 0 0 1 13.531429 23.332572V373.613714a26.916571 26.916571 0 0 1-27.136 26.989715zM677.376 271.579429a13.458286 13.458286 0 0 0-13.531429 13.385142V465.334857c0 4.754286 2.633143 9.289143 6.875429 11.702857l155.648 88.502857a13.458286 13.458286 0 0 0 20.260571-11.702857V373.76a13.531429 13.531429 0 0 0-6.802285-11.702857l-155.794286-88.576a12.873143 12.873143 0 0 0-6.582857-1.828572zM833.097143 553.764571v-180.150857l-155.721143-88.502857V465.334857l155.721143 88.502857z m0 26.916572a27.282286 27.282286 0 0 1-13.312-3.510857L664.137143 488.667429a26.916571 26.916571 0 0 1-13.531429-23.405715v-180.150857a26.916571 26.916571 0 0 1 40.228572-23.478857l155.648 88.502857a26.916571 26.916571 0 0 1 13.604571 23.405714V553.691429a26.916571 26.916571 0 0 1-26.916571 26.916571zM657.115429 447.268571a13.458286 13.458286 0 0 0-6.729143 1.828572l-3.949715 2.267428a13.531429 13.531429 0 0 0 0 23.405715l3.949715 2.340571a13.458286 13.458286 0 0 0 20.187428-11.629714v-4.461714a13.238857 13.238857 0 0 0-6.656-11.629715 11.556571 11.556571 0 0 0-6.802285-2.121143zM667.574857 458.532571v-7.314285l-7.314286 3.657143 7.314286 3.657142z m-2.267428 33.645715c-5.851429 0-11.702857-1.462857-16.822858-4.388572l-5.12-2.852571a33.645714 33.645714 0 0 1 0-58.587429l5.12-2.925714a34.742857 34.742857 0 0 1 33.865143 0.292571 33.645714 33.645714 0 0 1 16.969143 29.184v5.632a33.645714 33.645714 0 0 1-34.011428 33.645715zM501.906286 183.369143a13.458286 13.458286 0 0 0-13.531429 13.385143v4.242285a13.238857 13.238857 0 0 0 13.531429 13.385143c2.267429 0 4.608-0.585143 6.729143-1.755428l3.657142-2.194286a13.531429 13.531429 0 0 0 0-23.332571l-3.657142-2.121143a14.409143 14.409143 0 0 0-6.729143-1.609143zM509.220571 194.121143l7.314286-3.657143-7.314286-3.657143v7.314286z m0 33.792a33.28 33.28 0 0 1-17.188571-4.681143 33.718857 33.718857 0 0 1-17.042286-29.257143v-5.266286c0-12.068571 6.509714-23.259429 17.042286-29.257142a34.962286 34.962286 0 0 1 34.084571-0.219429l4.754286 2.56a33.792 33.792 0 0 1 0 58.806857l-4.754286 2.633143a31.817143 31.817143 0 0 1-16.896 4.681143zM346.404571 94.208a13.458286 13.458286 0 0 0-6.729142 1.755429L184.173714 185.782857a13.458286 13.458286 0 0 0-6.656 11.702857V377.782857a13.238857 13.238857 0 0 0 13.458286 13.385143c2.340571 0 4.608-0.585143 6.729143-1.755429l155.282286-88.283428a13.531429 13.531429 0 0 0 6.802285-11.702857v-181.76a13.458286 13.458286 0 0 0-13.385143-13.531429zM190.902857 377.782857l155.501714-88.356571v-181.76L190.902857 197.485714V377.782857z m0 26.916572a26.916571 26.916571 0 0 1-26.916571-27.062858v-180.370285c0-9.508571 5.12-18.432 13.531428-23.259429L333.019429 84.114286a27.062857 27.062857 0 0 1 40.448 23.332571V289.426286a26.916571 26.916571 0 0 1-13.531429 23.405714L204.434286 401.188571a27.501714 27.501714 0 0 1-13.531429 3.510858zM217.819429 350.866286l128.585142-73.069715v11.629715L190.902857 377.782857V197.485714l26.916572-15.579428zM522.093714 4.534857a13.458286 13.458286 0 0 0-13.385143 13.458286V196.827429c0 4.754286 2.56 9.289143 6.802286 11.702857L670.72 296.813714a13.458286 13.458286 0 0 0 20.187429-11.629714v-177.517714a13.677714 13.677714 0 0 0-6.729143-11.702857l-155.209143-89.526858a13.312 13.312 0 0 0-6.875429-1.901714zM677.376 285.110857v-177.517714L522.24 17.993143V196.827429l3.730286 2.048 151.478857 86.235428z m0 26.916572a27.282286 27.282286 0 0 1-13.312-3.510858L512.512 222.281143l-3.657143-2.048a26.916571 26.916571 0 0 1-13.677714-23.405714v-178.907429a26.770286 26.770286 0 0 1 27.062857-26.916571 27.282286 27.282286 0 0 1 13.458286 3.657142L690.907429 84.114286a27.062857 27.062857 0 0 1 13.458285 23.332571V285.110857a26.916571 26.916571 0 0 1-26.989714 26.916572zM525.824 185.417143a13.458286 13.458286 0 0 0-6.729143 1.755428l-3.657143 2.194286a13.531429 13.531429 0 0 0-6.802285 11.629714V376.978286c0 4.827429 2.56 9.289143 6.729142 11.702857L666.697143 474.697143a13.458286 13.458286 0 0 0 13.385143 0l4.022857-2.267429a13.531429 13.531429 0 0 0 6.802286-11.702857v-175.762286a13.531429 13.531429 0 0 0-6.802286-11.702857L532.48 187.172571a14.482286 14.482286 0 0 0-6.656-1.682285zM673.426286 462.994286l3.949714-2.267429v-175.762286L525.897143 198.802286l-3.657143 2.121143V376.978286L673.353143 462.994286z m0 26.916571a27.282286 27.282286 0 0 1-13.312-3.510857L508.781714 400.384a26.916571 26.916571 0 0 1-13.604571-23.405714v-175.981715c0-9.728 5.193143-18.578286 13.604571-23.405714l3.657143-2.121143a27.282286 27.282286 0 0 1 26.697143 0l151.552 86.235429a26.916571 26.916571 0 0 1 13.604571 23.405714V460.8a26.916571 26.916571 0 0 1-13.604571 23.405714L686.665143 486.4a27.136 27.136 0 0 1-13.238857 3.437714zM346.404571 275.894857a13.458286 13.458286 0 0 0-6.729142 1.828572L184.173714 366.08a13.531429 13.531429 0 0 0-6.802285 11.702857V553.764571a13.238857 13.238857 0 0 0 13.531428 13.458286c2.267429 0 4.608-0.658286 6.729143-1.828571l155.355429-88.283429a13.531429 13.531429 0 0 0 6.802285-11.702857v-175.981714a13.238857 13.238857 0 0 0-6.656-11.629715 13.312 13.312 0 0 0-6.729143-1.901714zM190.902857 553.764571l155.501714-88.356571v-175.981714L190.902857 377.782857V553.764571z m0 26.916572a26.916571 26.916571 0 0 1-26.916571-27.062857v-175.908572c0-9.728 5.193143-18.578286 13.604571-23.405714l155.501714-88.283429a27.282286 27.282286 0 0 1 26.843429 0.146286 26.916571 26.916571 0 0 1 13.385143 23.332572V465.481143a26.916571 26.916571 0 0 1-13.604572 23.405714L204.214857 577.316571a27.136 27.136 0 0 1-13.312 3.364572zM217.819429 533.577143l128.585142-73.142857v4.973714L190.902857 553.691429v-175.981715l26.916572-15.286857zM501.906286 4.534857a13.458286 13.458286 0 0 0-6.729143 1.755429l-155.574857 89.673143a13.458286 13.458286 0 0 0-6.729143 11.702857V289.426286a13.238857 13.238857 0 0 0 13.531428 13.385143c2.267429 0 4.608-0.585143 6.729143-1.828572l155.501715-88.356571a13.531429 13.531429 0 0 0 6.729142-11.702857v-183.149715a13.677714 13.677714 0 0 0-6.656-11.702857 16.530286 16.530286 0 0 0-6.802285-1.536zM346.404571 289.426286l155.501715-88.429715v-183.076571l-155.501715 89.746286V289.426286z m0 26.843428a26.916571 26.916571 0 0 1-26.916571-27.062857v-181.613714c0-9.581714 5.12-18.505143 13.531429-23.259429l155.501714-89.819428a27.062857 27.062857 0 0 1 40.448 23.259428V200.996571a26.916571 26.916571 0 0 1-13.604572 23.405715L359.936 312.832a27.501714 27.501714 0 0 1-13.531429 3.437714zM501.906286 187.465143a13.458286 13.458286 0 0 0-6.729143 1.828571L339.675429 277.723429a13.531429 13.531429 0 0 0-6.802286 11.702857V465.408a13.238857 13.238857 0 0 0 13.531428 13.385143c2.267429 0 4.608-0.585143 6.729143-1.828572l155.501715-88.356571a13.531429 13.531429 0 0 0 6.729142-11.702857v-175.981714a13.238857 13.238857 0 0 0-13.458285-13.458286zM346.404571 465.408l155.501715-88.429714v-175.981715L346.404571 289.426286V465.408z m0 26.916571a26.916571 26.916571 0 0 1-26.916571-27.062857v-175.981714c0-9.654857 5.193143-18.578286 13.604571-23.405714L488.594286 177.517714a27.282286 27.282286 0 0 1 26.770285 0.146286 26.916571 26.916571 0 0 1 13.458286 23.332571V376.978286a26.916571 26.916571 0 0 1-13.604571 23.405714L359.716571 488.813714a26.185143 26.185143 0 0 1-13.312 3.510857zM507.026286 553.910857a13.458286 13.458286 0 0 0-6.729143 1.755429L345.526857 643.730286a13.385143 13.385143 0 0 0-6.802286 11.702857c0 4.754286 2.56 9.289143 6.656 11.702857l163.254858 94.134857a13.458286 13.458286 0 0 0 13.385142 0l154.989715-89.453714a13.531429 13.531429 0 0 0-0.073143-23.405714L513.536 555.593143a12.726857 12.726857 0 0 0-6.582857-1.682286zM515.364571 749.568l154.916572-89.380571-163.254857-92.891429L352.182857 655.36 515.364571 749.714286z m0 26.916571a27.282286 27.282286 0 0 1-13.458285-3.584L338.651429 678.692571a26.989714 26.989714 0 0 1 0.073142-46.665142l154.770286-88.064a27.282286 27.282286 0 0 1 26.624 0l163.328 92.891428a26.916571 26.916571 0 0 1 0.073143 46.665143L528.676571 772.900571a26.038857 26.038857 0 0 1-13.312 3.657143zM379.099429 641.901714L540.525714 735.085714l-25.161143 14.482286-163.108571-94.281143 154.770286-87.990857 1.609143 1.024zM355.693714 467.821714a13.458286 13.458286 0 0 0-6.729143 1.755429L197.705143 555.593143a13.531429 13.531429 0 0 0-6.802286 11.702857v2.706286c0 4.827429 2.633143 9.289143 6.729143 11.702857l147.748571 85.284571a13.458286 13.458286 0 0 0 13.385143 0l154.843429-87.990857a13.531429 13.531429 0 0 0 0-23.405714L362.276571 469.577143a12.873143 12.873143 0 0 0-6.582857-1.755429zM352.182857 655.36l154.843429-88.064L355.693714 481.28 204.434286 567.296v2.706286l147.748571 85.284571z m0 26.916571a27.062857 27.062857 0 0 1-13.458286-3.584L190.902857 593.408a27.062857 27.062857 0 0 1-13.458286-23.332571v-2.706286c0-9.654857 5.12-18.578286 13.604572-23.405714L342.308571 458.093714a27.282286 27.282286 0 0 1 26.624 0l151.259429 86.016a26.916571 26.916571 0 0 1 0 46.811429L365.494857 678.765714a27.282286 27.282286 0 0 1-13.312 3.510857zM227.181714 556.617143l147.748572 85.284571-22.674286 13.385143-147.821714-85.284571v-2.706286l22.747428-12.873143zM666.697143 463.067429a13.458286 13.458286 0 0 0-6.729143 1.828571L500.297143 555.666286a13.531429 13.531429 0 0 0 0 23.405714l163.328 92.891429a13.458286 13.458286 0 0 0 13.385143 0l156.086857-90.185143a13.458286 13.458286 0 0 0 6.729143-11.702857v-2.706286a13.531429 13.531429 0 0 0-6.802286-11.702857l-159.744-90.697143a12.434286 12.434286 0 0 0-6.582857-1.901714zM670.208 660.187429l156.086857-90.185143v-2.706286l-155.721143-88.502857-3.949714-2.267429-159.597714 90.770286 163.108571 92.891429z m0 26.916571a27.282286 27.282286 0 0 1-13.312-3.510857L493.568 590.774857a26.916571 26.916571 0 0 1 0-46.811428l159.744-90.697143a27.282286 27.282286 0 0 1 26.624 0l3.949714 2.194285 155.721143 88.502858a26.916571 26.916571 0 0 1 13.604572 23.405714v2.633143a26.770286 26.770286 0 0 1-13.531429 23.332571L683.593143 683.373714a25.6 25.6 0 0 1-13.385143 3.657143zM515.364571 376.978286a13.458286 13.458286 0 0 0-6.656 1.828571L348.891429 469.577143a13.531429 13.531429 0 0 0 0 23.405714L500.297143 578.998857a13.458286 13.458286 0 0 0 13.385143 0l159.744-90.770286a13.531429 13.531429 0 0 0 0-23.405714L522.093714 378.806857a13.458286 13.458286 0 0 0-6.729143-1.828571zM507.026286 567.296l159.670857-90.770286-151.332572-86.016-155.428571 88.356572v2.998857-2.925714l-4.242286 2.340571 151.332572 86.016z m0 27.062857a27.282286 27.282286 0 0 1-13.312-3.584L342.308571 504.832a26.916571 26.916571 0 0 1 0-46.811429l4.242286-2.413714L502.125714 367.177143a27.282286 27.282286 0 0 1 26.550857 0l151.332572 86.016a26.916571 26.916571 0 0 1 0 46.811428L520.265143 590.774857a27.282286 27.282286 0 0 1-13.238857 3.510857z"  horiz-adv-x="1024" />

    
    <glyph glyph-name="xing" unicode="&#58950;" d="M512 96l-263.296-138.432 50.24 293.184-212.992 207.68 294.4 42.816L512 768l131.648-266.752 294.4-42.816-212.992-207.68 50.24-293.184z"  horiz-adv-x="1024" />

    
    <glyph glyph-name="jiantou-chaoguocopy" unicode="&#58951;" d="M1024 244.352L512 896 0 244.352h279.296V-128h418.88v372.352z"  horiz-adv-x="1024" />

    
    <glyph glyph-name="xin" unicode="&#58952;" d="M700.8 740.48c-74.688 0-144.256-72.704-190.016-127.296-45.696 54.592-115.2 127.296-190.08 127.296-134.72 0-244.416-105.792-244.416-235.84 0-77.568 39.296-131.968 70.848-175.68 91.776-127.04 322.496-285.056 332.224-291.712a55.808 55.808 0 0 1 62.848 0c9.792 6.656 240.512 164.672 332.16 291.712 31.616 43.712 70.912 98.112 70.912 175.68 0 130.048-109.632 235.84-244.48 235.84z"  horiz-adv-x="1024" />

    
    <glyph glyph-name="xinshilu" unicode="&#58953;" d="M446.902857 655.945143a280.064 280.064 0 1 1 0.073143-560.054857 280.064 280.064 0 0 1-0.073143 560.054857z m162.596572-442.587429a229.449143 229.449143 0 0 0-252.123429-49.298285 229.449143 229.449143 0 0 0-73.142857 49.298285 229.449143 229.449143 0 0 0-49.225143 252.123429c11.556571 27.355429 28.16 51.931429 49.298286 73.142857a229.449143 229.449143 0 0 0 252.123428 49.225143c27.355429-11.556571 51.931429-28.16 73.069715-49.298286a229.449143 229.449143 0 0 0 49.298285-252.123428c-11.483429-27.355429-28.086857-51.931429-49.298285-73.069715zM471.917714 722.870857h-50.029714V822.857143h50.029714v-99.986286z m-50.029714-693.833143h50.029714v-99.986285h-50.029714v99.986285zM183.881143 603.574857l-70.656 70.656 35.401143 35.401143 70.656-70.656-35.401143-35.401143z m526.043428-455.241143l70.656-70.656-35.401142-35.401143-70.656 70.656 35.401142 35.401143zM0 400.969143h99.986286v-50.029714H0v50.029714z m893.805714 0v-50.029714h-99.986285v50.029714h99.986285z m-709.924571-252.635429l35.401143-35.401143-70.656-70.656-35.401143 35.401143 70.656 70.656z m561.298286 561.298286l35.401142-35.401143-70.656-70.656-35.401142 35.401143 70.656 70.656z"  horiz-adv-x="1024" />

    
    <glyph glyph-name="xuesheng" unicode="&#58954;" d="M664.7808 597.4016c0 91.9552-68.539733 166.775467-152.7808 166.775467S359.2192 689.3568 359.2192 597.4016c0-92.023467 68.539733-166.843733 152.7808-166.843733s152.7808 74.820267 152.7808 166.843733zM512 385.501867c-176.5376 0-321.1264-151.552-330.410667-341.674667a1197.397333 1197.397333 0 0 1 195.7888-36.864c74.1376-7.9872 148.616533-9.557333 221.047467-4.983467a1160.328533 1160.328533 0 0 1 243.985067 41.437867C833.3312 233.745067 688.605867 385.501867 512 385.501867z m372.1216-361.198934c0 54.818133-9.8304 108.066133-29.218133 158.1056a408.507733 408.507733 0 0 1-79.803734 129.160534 370.688 370.688 0 0 1-118.237866 87.04 366.455467 366.455467 0 0 1-45.056 17.2032c56.456533 37.0688 94.208 104.448 94.208 181.589333 0 116.736-87.04 211.831467-194.013867 211.831467-106.973867 0-194.013867-95.095467-194.013867-211.831467 0-77.0048 37.751467-144.520533 94.208-181.589333a336.145067 336.145067 0 0 1-45.056-17.2032A370.688 370.688 0 0 1 248.900267 311.637333a408.507733 408.507733 0 0 1-79.803734-129.160533 436.4288 436.4288 0 0 1-29.218133-158.1056c0-11.6736 8.123733-21.2992 18.500267-22.459733 65.536-4.369067 621.431467-9.0112 712.430933 1.160533v0.2048a22.391467 22.391467 0 0 1 13.312 21.0944z"  horiz-adv-x="1024" />

    
    <glyph glyph-name="wodexuesheng" unicode="&#58955;" d="M707.84 381.696a255.36 255.36 0 1 0 0 510.72 255.36 255.36 0 0 0 0-510.72z m0 60.224a195.136 195.136 0 1 1 0.064 390.272 195.136 195.136 0 0 1 0-390.272zM566.72 841.344l-25.92-54.4a177.28 177.28 0 1 1 35.456-298.24l37.952-46.72A237.568 237.568 0 1 0 566.72 841.408zM921.408 392a30.08 30.08 0 1 0-26.88-53.952 420.416 420.416 0 0 1-607.04-376.768 30.08 30.08 0 0 0-60.224 0 480.64 480.64 0 0 0 694.144 430.72zM545.92 430.976a30.08 30.08 0 0 0-14.08-58.56 334.72 334.72 0 0 1-413.248-325.376 30.08 30.08 0 0 0-60.288 0A394.88 394.88 0 0 0 545.92 430.912h0.064z m373.504-193.472c27.84 0 54.208-10.88 73.728-30.336 40.896-40.96 40.32-107.776-0.896-149.056l-118.208-118.208a32.256 32.256 0 0 0-45.632 0l-118.208 118.208a105.6 105.6 0 0 0-0.896 149.056 103.68 103.68 0 0 0 73.728 30.336c25.216 0 49.088-8.704 68.224-24.704 19.072 16 43.008 24.704 68.16 24.704zM851.2-23.296l111.168 111.232a63.36 63.36 0 0 1 0.896 89.408 63.616 63.616 0 0 1-89.472-0.896l-22.656-22.656-14.848 14.976-7.744 7.68a63.872 63.872 0 0 1-45.568 18.88 61.44 61.44 0 0 1-43.904-17.984 63.36 63.36 0 0 1 0.896-89.408l111.232-111.232z m101.312 121.088a49.408 49.408 0 0 1 0.832 69.76 47.616 47.616 0 0 1-33.984 13.824c-13.44 0-26.24-5.248-35.712-14.72l-15.616-15.68a23.936 23.936 0 0 0-33.792 0l-15.552 15.616a49.984 49.984 0 0 1-35.712 14.848 47.616 47.616 0 0 1-47.936-48.448 49.984 49.984 0 0 1 14.848-35.2l101.312-101.376 101.312 101.312v0.064z m-98.688 98.624a92.16 92.16 0 0 0 65.536 27.136c24.192 0 46.976-9.344 63.808-26.24a91.52 91.52 0 0 0-0.832-129.408l-131.136-131.136-14.912 14.976-116.224 116.224a92.16 92.16 0 0 0-27.136 64.64 89.792 89.792 0 0 0 90.048 91.008c24.704 0 48-9.728 65.6-27.2l2.624-2.688 2.624 2.688z"  horiz-adv-x="1024" />

    
    <glyph glyph-name="xueshengqingjia" unicode="&#58957;" d="M859.989333 35.498667H512a51.2 51.2 0 0 0-51.2 51.2v71.68h450.389333v-71.68a51.2 51.2 0 0 0-51.2-51.2z m-229.376 340.764444a122.88 122.88 0 1 0 178.176 109.511111c0-47.900444-27.477333-89.201778-67.413333-109.454222a225.052444 225.052444 0 0 0 169.813333-217.998222H460.8c0 105.187556 72.248889 193.251556 169.813333 217.998222zM491.52 485.944889c0-31.402667 7.566222-60.871111 20.764444-87.210667a296.220444 296.220444 0 0 1-123.164444-240.355555c0-13.425778 1.137778-26.624 2.844444-39.537778a306.972444 306.972444 0 0 0-279.267555 305.720889A307.086222 307.086222 0 0 0 419.84 731.591111c72.021333 0 138.126222-25.031111 190.407111-66.503111a194.787556 194.787556 0 0 1-118.670222-179.2z m-61.44 92.16a30.663111 30.663111 0 1 1-61.383111 0v-138.808889L273.92 344.348444a30.663111 30.663111 0 1 1 43.406222-43.406222l101.262222 101.262222a30.037333 30.037333 0 0 1 8.817778 20.138667 30.264889 30.264889 0 0 1 2.616889 12.401778V577.991111h0.056889z"  horiz-adv-x="1024" />

    
    <glyph glyph-name="weixin" unicode="&#58958;" d="M960.512 520.192c0 153.6-149.504 281.6-332.8 281.6-136.192 0-256-68.608-307.2-171.008 17.408 0 33.792 4.096 51.2 4.096 51.2 72.704 145.408 123.904 256 123.904 161.792 0 289.792-106.496 289.792-238.592 0-63.488-29.696-123.904-84.992-171.008-13.312-8.192-17.408-29.696-13.312-43.008l17.408-59.392-86.016 34.816c0-13.312-4.096-29.696-8.192-43.008l157.696-59.392-38.912 141.312a251.245714 251.245714 0 0 1 99.328 199.68z m-584.704 72.704c-183.296 0-332.8-128-332.8-281.6 0-80.896 37.888-153.6 102.4-204.8l-38.912-141.312 187.392 72.704c25.6-4.096 55.296-8.192 84.992-8.192 183.296 0 332.8 123.904 332.8 281.6 1.024 153.6-148.48 281.6-335.872 281.6z m0-520.192c-25.6 0-51.2 4.096-76.8 8.192h-8.192c-4.096 0-8.192 0-17.408-4.096l-110.592-43.008 17.408 59.392c4.096 17.408 0 33.792-13.312 43.008C111.616 183.296 81.92 242.688 81.92 307.2c0 132.096 132.096 238.592 289.792 238.592S661.504 439.296 661.504 307.2c8.192-128-123.904-234.496-285.696-234.496z"  horiz-adv-x="1024" />

    
    <glyph glyph-name="yuannei" unicode="&#58959;" d="M977.728 522.368L588.416 825.472c-33.472 26.112-86.08 26.112-119.552 0L79.616 522.368a29.952 29.952 0 0 1-5.12-42.496c10.56-13.12 29.44-15.36 42.688-4.992l19.328 11.52v-494.912c0-51.968 48.384-85.376 97.28-85.376h614.336c48.256 0 73.472 31.04 73.472 85.376V486.4l17.536-11.52a31.616 31.616 0 0 1 43.52 4.992 29.888 29.888 0 0 1-4.928 42.496zM631.488-25.6h-204.8v256c0 35.2 39.04 85.312 102.4 85.312 63.36 0 102.4-50.112 102.4-85.312v-256z"  horiz-adv-x="1024" />

    
    <glyph glyph-name="yuedu" unicode="&#58960;" d="M1001.773349-0.146286h-95.524572l96.329143 34.596572a21.357714 21.357714 0 0 1 13.165714 26.550857l-192 603.428571a21.357714 21.357714 0 0 1-27.574857 13.604572l-199.606857-71.533715v12.068572a21.357714 21.357714 0 0 1-21.284571 21.284571h-512a21.357714 21.357714 0 0 1-21.357715-21.284571v-618.715429H23.853349a21.357714 21.357714 0 1 1 0-42.642285h977.92a21.357714 21.357714 0 1 1 0 42.642285z m-211.968 630.491429l178.980571-562.688-171.446857-61.44L618.285349 569.051429l171.52 61.44z m-35.181715-630.491429h-157.988571v496.64l157.988571-496.64z m-669.988571 597.357715h213.357714v-597.357715H84.56192V597.211429z m256-597.357715V597.211429h213.357714v-597.357715H340.56192zM232.676206 127.853714h-86.308572a21.357714 21.357714 0 1 1 0-42.642285h86.308572a21.357714 21.357714 0 1 1 0 42.642285z m256 0h-86.308572a21.357714 21.357714 0 1 1 0-42.642285h86.308572a21.357714 21.357714 0 1 1 0 42.642285z m309.613714 385.536a62.756571 62.756571 0 0 1-32.182857 37.302857 60.050286 60.050286 0 0 1-47.177143 2.56 64.512 64.512 0 0 1-38.4-80.896 62.683429 62.683429 0 0 1 32.182857-37.302857 60.489143 60.489143 0 0 1 47.177143-2.56 64.658286 64.658286 0 0 1 38.4 80.896z m-52.809143-40.740571a18.066286 18.066286 0 0 0-14.043428 0.804571 20.699429 20.699429 0 0 0-10.386286 12.288c-3.657143 11.337143 1.755429 23.625143 12.288 27.428572a17.846857 17.846857 0 0 0 14.043428-0.731429c5.046857-2.56 8.777143-7.021714 10.459429-12.361143 3.657143-11.190857-1.974857-23.698286-12.361143-27.428571z m-555.885714 83.675428a64.585143 64.585143 0 0 1 0-128.950857 64.585143 64.585143 0 0 1 0 128.950857z m0-86.308571a21.796571 21.796571 0 1 0 0 43.666286 21.796571 21.796571 0 0 0 0-43.593143z m256-42.642286a64.585143 64.585143 0 0 1 0 128.950857 64.585143 64.585143 0 0 1 0-128.950857z m0 86.308572a21.796571 21.796571 0 1 0 0-43.666286 21.796571 21.796571 0 0 0 0 43.666286z"  horiz-adv-x="1024" />

    
    <glyph glyph-name="yinshi" unicode="&#58961;" d="M834.816 455.744a31.168 31.168 0 0 1-35.712 25.984c-1.28-0.256-130.944-20.48-286.912-20.48-156.032 0-285.632 20.224-286.912 20.48a31.232 31.232 0 1 1-9.792-61.696 2088.192 2088.192 0 0 1 593.408 0 31.232 31.232 0 0 1 25.92 35.712zM397.312 356.992a31.232 31.232 0 0 1-31.232-31.232v-28.672a31.232 31.232 0 1 1 62.464 0V325.76a31.232 31.232 0 0 1-31.232 31.232z m229.76 0a31.232 31.232 0 0 1-31.232-31.232v-28.672a31.232 31.232 0 1 1 62.4 0V325.76a31.232 31.232 0 0 1-31.232 31.232z m-115.2-222.592c42.24 0 72.064 29.056 83.072 46.272a31.04 31.04 0 0 1-9.216 42.688 31.36 31.36 0 0 1-43.136-8.704c-0.128-0.192-12.288-17.792-30.72-17.792-17.792 0-29.056 16.192-29.824 17.408a31.168 31.168 0 0 1-52.864-33.28c10.752-17.28 40.32-46.592 82.688-46.592z m378.112 435.008a511.296 511.296 0 0 1-103.04 123.776 31.232 31.232 0 1 1-41.088-46.976A442.88 442.88 0 0 0 838.4 533.76c2.56-5.504 6.784-10.24 12.416-13.568 33.536-19.84 50.752-37.376 45.696-73.28-20.928-149.888-79.104-246.208-183.296-303.168-1.536-0.896-3.2-1.728-4.864-2.56-12.48-6.4-35.776-18.304-40.128-46.592-8.576-54.976-38.72-59.264-100.608-63.104l-2.368-0.128c-43.584-2.752-91.712-1.088-147.072 5.12-44.48 4.992-55.168 20.736-58.56 46.272-4.928 37.248-32.64 52.224-49.152 61.12l-7.104 3.968C205.12 205.248 149.44 299.2 128 443.52c-5.12 34.752 6.4 57.28 38.016 73.6 0.768-0.128 1.6-0.32 2.432-0.32a31.232 31.232 0 0 1 28.224 17.92c0.96 1.984 98.112 202.56 315.392 202.56a31.232 31.232 0 0 1 0 62.464c-219.392 0-332.16-167.36-363.008-221.76-80.448-35.264-89.6-97.28-82.816-143.616 24-162.24 91.264-273.6 205.568-340.48l8.896-4.928c15.552-8.384 16.384-10.048 16.96-14.4 7.808-58.88 45.952-92.544 113.472-100.16 40.576-4.48 77.632-6.784 112.256-6.784 15.68 0 30.912 0.512 45.696 1.408l2.368 0.128c55.808 3.52 139.904 8.704 157.824 112.448 1.984 1.28 5.12 2.88 7.488 4.032l6.4 3.392c121.216 66.304 191.552 180.48 215.168 349.248 10.752 76.8-39.68 113.6-68.416 131.2zM607.744 723.84c18.368-5.44 36.608-12.544 54.144-21.12a31.04 31.04 0 0 1 41.792 14.272 31.232 31.232 0 0 1-14.272 41.792 404.672 404.672 0 0 1-64.128 24.96 31.168 31.168 0 1 1-17.536-59.904zM422.72 573.248a31.168 31.168 0 0 1 28.736 43.328l-10.816 25.664a31.232 31.232 0 1 1-57.536-24.192l10.816-25.664c4.992-11.968 16.576-19.136 28.8-19.136z m221.312-40.704l21.248 25.728a31.232 31.232 0 0 1-48.192 39.68l-21.12-25.6a31.232 31.232 0 0 1 48.064-39.808z m-333.248-5.44a31.04 31.04 0 0 1 43.52 7.04 31.232 31.232 0 0 1-7.04 43.648l-21.184 15.232a31.232 31.232 0 1 1-36.48-50.624l21.12-15.296z"  horiz-adv-x="1024" />

    
    <glyph glyph-name="shengrizhuanqu" unicode="&#58962;" d="M240.938667 215.168c50.986667 0 95.914667 22.4 123.093333 56.533333 32.64-34.133333 86.613333-56.533333 147.797333-56.533333 61.226667 0 115.114667 22.4 147.754667 56.533333 27.221333-34.133333 72.149333-56.533333 123.136-56.533333 83.072 0 150.528 59.221333 150.528 132.266667 0 65.109333-53.632 118.912-124.074667 129.92a153.130667 153.130667 0 0 1-26.453333 2.389333h-210.688V597.290667h-120.405333v-117.589334H240.938667c-9.045333 0-17.92-0.853333-26.453334-2.389333-70.485333-10.965333-124.074667-64.768-124.074666-129.92 0-73.002667 67.370667-132.266667 150.528-132.266667z m270.890666 411.477333c33.237333 0 60.245333 26.368 60.245334 58.837334 0 32.426667-60.245333 146.944-60.245334 146.944s-60.202667-114.474667-60.202666-146.944c0-32.469333 26.965333-58.837333 60.202666-58.837334z m146.474667-408.746666c-32.768-37.12-85.973333-61.568-146.474667-61.568-60.501333 0-113.706667 24.405333-146.474666 61.568-29.397333-36.864-80.725333-61.568-139.52-61.568-56.106667 0-105.472 22.442667-135.424 56.533333v-136.490667c0-81.152 67.370667-146.944 150.528-146.944h541.781333c83.072 0 150.528 65.792 150.528 146.944v136.533334c-29.952-34.133333-79.36-56.576-135.509333-56.576-58.752 0-110.08 24.704-139.434667 61.568z"  horiz-adv-x="1024" />

    
    <glyph glyph-name="T" unicode="&#58963;" d="M512 384m-512 0a512 512 0 1 1 1024 0 512 512 0 1 1-1024 0ZM256 640h512v-117.418667H574.890667v-387.242666H447.914667V522.581333H256z"  horiz-adv-x="1024" />

    
    <glyph glyph-name="zuoyexiangqing" unicode="&#58964;" d="M859.306667-116.679111H181.475556a52.906667 52.906667 0 0 0-53.475556 52.337778V843.093333c0 28.899556 23.950222 52.337778 53.475556 52.337778h285.411555v-296.675555c0-57.912889 47.957333-104.903111 107.008-104.903112H912.839111v-558.136888a52.906667 52.906667 0 0 0-53.475555-52.337778zM573.895111 546.247111a52.963556 52.963556 0 0 0-53.475555 52.451556V896l392.419555-349.752889H573.895111z"  horiz-adv-x="1024" />

    
    <glyph glyph-name="chaxun" unicode="&#58965;" d="M795.904 384c0-13.9776 9.3184-23.296 23.296-23.296s23.296 9.3184 23.296 23.296c0 181.504-148.992 330.496-330.496 330.496-13.9776 0-23.296-9.3184-23.296-23.296s9.3184-23.296 23.296-23.296c155.904 0 283.904-128 283.904-283.904zM840.192 88.4224c69.7856 79.1552 113.9712 181.5552 113.9712 295.5776A442.0096 442.0096 0 0 1 512 826.1632 442.0096 442.0096 0 0 1 69.8368 384c0-74.496 18.5856-146.6368 53.504-211.7632 6.9632-11.6736 20.992-16.3328 32.5632-9.3184 11.6736 6.9632 16.3328 20.9408 9.3184 32.5632-32.5632 55.8592-48.8448 123.392-48.8448 188.5184A395.264 395.264 0 0 0 512 779.6224 395.264 395.264 0 0 0 907.6224 384 395.264 395.264 0 0 0 512-11.6224a392.8576 392.8576 0 0 0-221.0816 67.4816c-11.6224 6.9632-25.6 4.608-32.6144-6.9632-6.9632-11.6736-4.608-25.6 7.0144-32.6144A439.5008 439.5008 0 0 1 512-58.1632c114.0224 0 216.4224 44.1856 295.5776 114.0224l107.008-107.0592c4.7104-4.608 11.6736-6.9632 16.3328-6.9632 4.608 0 11.6224 2.304 16.2816 6.9632a22.528 22.528 0 0 1 0 32.5632l-107.008 107.0592z"  horiz-adv-x="1024" />

    
    <glyph glyph-name="gerenxinxi" unicode="&#58966;" d="M758.491429 586.752c0 153.673143-121.344 278.674286-270.555429 278.674286-149.065143 0-270.482286-125.001143-270.482286-278.674286 0-104.813714 56.466286-196.242286 139.702857-243.858286-163.254857-60.416-280.283429-221.403429-280.283428-410.112 0-16.749714 13.165714-30.281143 29.330286-30.281143a29.769143 29.769143 0 0 1 29.403428 30.281143c0 206.848 163.328 375.222857 364.105143 375.222857a28.233143 28.233143 0 0 1 7.094857 0.950858c140.434286 10.020571 251.684571 130.633143 251.684572 277.796571zM487.936 368.493714c-116.736 0-211.748571 97.865143-211.748571 218.258286 0 120.32 95.012571 218.185143 211.748571 218.185143 116.809143 0 211.821714-97.865143 211.821714-218.185143 0-120.393143-95.012571-218.258286-211.821714-218.258286z m56.32-158.061714c0-16.676571 13.165714-30.281143 29.403429-30.281143h344.064a29.769143 29.769143 0 0 1 29.403428 30.281143 29.842286 29.842286 0 0 1-29.403428 30.208H573.659429a29.842286 29.842286 0 0 1-29.403429-30.208z m373.467429-93.476571H573.659429a29.842286 29.842286 0 0 1-29.403429-30.281143c0-16.676571 13.165714-30.208 29.403429-30.208h344.064a29.769143 29.769143 0 0 1 29.403428 30.208 29.769143 29.769143 0 0 1-29.403428 30.281143z m0-138.825143H573.659429a29.842286 29.842286 0 0 1-29.403429-30.281143c0-16.676571 13.165714-30.208 29.403429-30.208h344.064a29.769143 29.769143 0 0 1 29.403428 30.208 29.769143 29.769143 0 0 1-29.403428 30.281143z"  horiz-adv-x="1024" />

    
    </font>
</defs>
</svg>
